<svg width="80" height="64" viewBox="0 0 80 64" fill="none" xmlns="http://www.w3.org/2000/svg">
<path d="M25.8782 21.9465C25.8782 21.776 25.8782 19.2959 25.8782 19.2959H24.4045C24.4045 19.2959 24.4045 21.7375 24.4045 21.8146C24.4045 22.2655 23.9866 22.5679 23.2827 22.5679C22.5458 22.5679 22.1444 22.2764 22.1444 21.809C22.1444 21.732 22.1444 19.2959 22.1444 19.2959H20.6541C20.6541 19.2959 20.6541 21.611 20.6541 21.809C20.6541 23.1178 21.7264 23.6732 23.2222 23.6732C24.8225 23.6732 25.8782 23.1123 25.8782 21.9465Z" fill="#003F3C"/>
<path d="M30.8413 23.6127V22.4634H28.2127V19.2959H26.7224V23.6127H30.8413Z" fill="#003F3C"/>
<path d="M35.2705 20.3793V19.2959H30.1178V20.3793H31.938V23.6127H33.4447V20.3793H35.2705Z" fill="#003F3C"/>
<path d="M37.2516 23.6127V19.2959H35.7394V23.6127H37.2516Z" fill="#003F3C"/>
<path d="M44.1896 23.6127V19.2959H42.3254L41.1486 21.8861L40.0268 19.2959H38.1021V23.6127H39.5043V21.2812L40.5162 23.6127H41.77L42.7928 21.2812V23.6127H44.1896Z" fill="#003F3C"/>
<path d="M46.5256 22.8153H48.8573L49.2368 23.6127H50.826L48.6484 19.2959H46.8722L44.568 23.6127H46.1242L46.5256 22.8153ZM48.3899 21.8475H47.0096L47.554 20.8081L47.719 20.4123L47.873 20.8027L48.3899 21.8475Z" fill="#003F3C"/>
<path d="M55.4998 20.3793V19.2959H50.3473V20.3793H52.1675V23.6127H53.6743V20.3793H55.4998Z" fill="#003F3C"/>
<path d="M60.5108 23.6127V22.5404H57.4158V21.9795H60.3844V20.9292H57.4158V20.3737H60.4728V19.2959H55.964V23.6127H60.5108Z" fill="#003F3C"/>
<path d="M31.8925 25.9075H30.4682C30.4682 25.9075 29.5388 28.624 29.5388 28.69C29.5388 28.624 28.67 25.9075 28.67 25.9075H27.1247C27.1247 25.9075 26.2613 28.624 26.2613 28.69C26.2613 28.624 25.3265 25.9075 25.3265 25.9075H23.7262L25.343 30.2243H26.9543C26.9543 30.2243 27.8231 27.6452 27.8286 27.5737C27.8341 27.6452 28.6975 30.2243 28.6975 30.2243H30.3142L31.8925 25.9075Z" fill="#003F3C"/>
<path d="M33.8415 30.2243V25.9075H32.3292V30.2243H33.8415Z" fill="#003F3C"/>
<path d="M39.7237 30.2243V25.9075H38.3159V28.2556L36.2427 25.9075H34.6919V30.2243H36.1107V27.8212L38.2499 30.2243H39.7237Z" fill="#003F3C"/>
<path d="M45.6149 30.2243V25.9075H44.2072V28.2556L42.134 25.9075H40.5833V30.2243H42.002V27.8212L44.1412 30.2243H45.6149Z" fill="#003F3C"/>
<path d="M51.0224 30.2243V29.152H47.9265V28.591H50.8959V27.5407H47.9265V26.9853H50.9839V25.9075H46.4746V30.2243H51.0224Z" fill="#003F3C"/>
<path d="M56.8353 27.2217C56.8353 26.8314 56.7413 26.5508 56.5433 26.3474C56.285 26.0725 55.8398 25.9075 55.1575 25.9075H51.7209V30.2243H53.1892V28.7011H54.5255L55.5982 30.2243H57.2368L55.9338 28.4645C56.2246 28.4206 56.4617 28.2446 56.6149 28.0357C56.7525 27.8432 56.8353 27.5572 56.8353 27.2217ZM55.4058 27.3592C55.4058 27.4308 55.3946 27.5187 55.3555 27.5847C55.3007 27.6946 55.1575 27.7387 54.9215 27.7387H53.1947V26.9523H54.8935C55.1251 26.9523 55.2794 26.9908 55.3555 27.1338C55.3946 27.1887 55.4058 27.2768 55.4058 27.3592Z" fill="#003F3C"/>
<path d="M26.4981 34.4715C26.4981 34.4009 26.4981 32.3621 26.4981 32.3621H25.9833C25.9833 32.3621 25.9833 34.3925 25.9833 34.4383C25.9833 34.9282 25.5223 35.2065 24.8579 35.2065C24.0732 35.2065 23.687 34.9075 23.687 34.4341C23.687 34.3884 23.687 32.3621 23.687 32.3621H23.168C23.168 32.3621 23.168 34.3386 23.168 34.4175C23.168 35.2812 23.8406 35.6632 24.8373 35.6632C25.867 35.6632 26.4981 35.2562 26.4981 34.4715Z" fill="#003F3C"/>
<path d="M30.1923 35.6217V35.1442H27.9459V32.3621H27.4269V35.6217H30.1923Z" fill="#003F3C"/>
<path d="M33.1419 32.8354V32.3621H29.6787V32.8354H31.1487V35.6217H31.6719V32.8354H33.1419Z" fill="#003F3C"/>
<path d="M36.8325 33.2838C36.8325 33.0513 36.7826 32.8811 36.6954 32.744C36.5418 32.5156 36.2469 32.3621 35.757 32.3621H33.6476V35.6217H34.1583V34.2472H35.6448L36.5542 35.6217H37.1521L36.1681 34.16C36.4172 34.131 36.6123 33.9897 36.7161 33.8071C36.791 33.6825 36.8325 33.4998 36.8325 33.2838ZM36.3175 33.3253C36.3175 33.4167 36.2968 33.5289 36.2594 33.6036C36.193 33.724 36.0393 33.7863 35.7902 33.7904H34.1624C34.1624 33.7821 34.1624 32.8271 34.1624 32.8271H35.6947C36.0061 32.8271 36.1722 32.9019 36.2594 33.043C36.2968 33.1095 36.3175 33.2215 36.3175 33.3253Z" fill="#003F3C"/>
<path d="M38.3098 34.8161H40.3404L40.7556 35.6217H41.312L39.6593 32.3621H39.0489L37.3423 35.6217H37.8862L38.3098 34.8161ZM40.1244 34.3552H38.5341L39.1942 33.1053L39.3396 32.8022L39.4849 33.1053L40.1244 34.3552Z" fill="#003F3C"/>
<path d="M46.5783 35.3103C46.707 35.1607 46.7652 34.949 46.7652 34.7206C46.7652 34.5047 46.7029 34.2887 46.5742 34.1558C46.4454 34.0313 46.2378 33.9275 46.0094 33.9067C46.1423 33.8859 46.2461 33.8029 46.3167 33.7157C46.4289 33.587 46.4952 33.3794 46.4952 33.1718C46.4952 32.9516 46.4289 32.7523 46.2876 32.6153C46.134 32.4617 45.8724 32.3621 45.507 32.3621H43.3145V35.6217H45.6689C46.1091 35.6217 46.4163 35.5096 46.5783 35.3103ZM45.9595 33.2756C45.9595 33.4209 45.9139 33.5496 45.835 33.6243C45.7561 33.7116 45.6232 33.7489 45.482 33.7489H43.821V32.8105H45.3865C45.5776 32.8105 45.7229 32.8478 45.8225 32.9392C45.9098 33.0222 45.9595 33.1427 45.9595 33.2756ZM46.1256 34.9946C46.0218 35.1109 45.8433 35.1691 45.5817 35.1691H43.821V34.2016H45.5942C45.835 34.2016 46.0011 34.2514 46.1008 34.3469C46.1921 34.4341 46.2295 34.5462 46.2295 34.6749C46.2295 34.8078 46.2005 34.9199 46.1256 34.9946Z" fill="#003F3C"/>
<path d="M50.5349 35.6217V35.1442H48.0021V34.214H50.4353V33.7406H48.0021V32.8354H50.5059V32.3621H47.4954V35.6217H50.5349Z" fill="#003F3C"/>
<path d="M54.5915 34.6582C54.5915 34.1266 54.2392 33.8526 53.3712 33.7529C53.2255 33.7322 52.9098 33.699 52.7396 33.6782C51.934 33.5827 51.6891 33.4748 51.6891 33.1966C51.6891 32.9267 51.959 32.773 52.7728 32.773C53.4036 32.773 53.728 32.8976 53.8902 33.1218C53.9361 33.1841 53.9607 33.2589 53.973 33.3169H54.5289C54.5132 33.2214 54.4752 33.0885 54.417 32.9806C54.1933 32.5945 53.7325 32.3162 52.7728 32.3162C51.6268 32.3121 51.1534 32.7274 51.1534 33.2422C51.1534 33.7571 51.523 34.0187 52.4822 34.1309C52.6483 34.1516 52.943 34.1848 53.0884 34.2015C53.832 34.2927 54.0647 34.4049 54.0647 34.7163C54.0647 35.0029 53.7985 35.2105 52.9472 35.2105C52.2497 35.2105 51.8758 35.0859 51.7264 34.8451C51.6808 34.7786 51.6517 34.6748 51.6476 34.6042H51.0994C51.1119 34.7537 51.1534 34.9156 51.2281 35.0444C51.4441 35.4389 51.9507 35.6673 52.9306 35.6673C54.1016 35.6673 54.5915 35.2893 54.5915 34.6582Z" fill="#003F3C"/>
<path d="M58.3155 32.8354V32.3621H54.8525V32.8354H56.3223V35.6217H56.8457V32.8354H58.3155Z" fill="#003F3C"/>
<path d="M21.698 38.4549C21.698 38.1227 21.6316 37.8984 21.5194 37.7282C21.3617 37.4831 21.0543 37.3545 20.5186 37.3545H18.4591V40.6141H18.974V39.551C18.974 39.551 20.4274 39.551 20.498 39.551C21.0004 39.5469 21.345 39.4307 21.5278 39.1649C21.644 39.003 21.698 38.7704 21.698 38.4549ZM21.1748 38.4549C21.1748 38.6209 21.1581 38.7455 21.1042 38.8286C21.0087 38.9822 20.8135 39.0777 20.4107 39.0777C20.3733 39.0777 18.974 39.0777 18.974 39.0777V37.8196H20.4274C20.8052 37.8196 21.0004 37.9067 21.1042 38.0769C21.154 38.1517 21.1748 38.2888 21.1748 38.4549Z" fill="#003F3C"/>
<path d="M25.4566 40.6141V40.1366H22.9236V39.2064H25.3569V38.7331H22.9236V37.8279H25.4275V37.3545H22.417V40.6141H25.4566Z" fill="#003F3C"/>
<path d="M29.4173 38.2763C29.4173 38.0437 29.3675 37.8735 29.2803 37.7365C29.1266 37.5081 28.8319 37.3545 28.3418 37.3545H26.2324V40.6141H26.7431V39.2397H28.2298L29.1391 40.6141H29.7371L28.7529 39.1524C29.0021 39.1234 29.1973 38.9822 29.3011 38.7995C29.3758 38.6749 29.4173 38.4923 29.4173 38.2763ZM28.9024 38.3178C28.9024 38.4091 28.8816 38.5213 28.8443 38.5961C28.7778 38.7164 28.6242 38.7787 28.3751 38.7828H26.7473C26.7473 38.7746 26.7473 37.8196 26.7473 37.8196H28.2795C28.5909 37.8196 28.757 37.8943 28.8443 38.0355C28.8816 38.1019 28.9024 38.214 28.9024 38.3178Z" fill="#003F3C"/>
<path d="M33.2674 37.8279V37.3545H30.369V40.6141H30.8839V39.2272H33.1595V38.7414H30.8839V37.8279H33.2674Z" fill="#003F3C"/>
<path d="M35.6309 37.2961C34.9374 37.2961 34.4599 37.4664 34.1193 37.8235C33.8329 38.1017 33.7083 38.4879 33.7083 38.9737C33.7083 39.5052 33.8702 39.9039 34.1692 40.1738C34.489 40.4936 34.9789 40.6595 35.6309 40.6595C36.3036 40.6595 36.8267 40.4936 37.1382 40.1571C37.4081 39.8831 37.5493 39.4928 37.5493 38.9696C37.5493 38.463 37.4288 38.0768 37.1423 37.8027C36.8143 37.4622 36.3243 37.2961 35.6309 37.2961ZM35.6309 40.1946C35.1741 40.1946 34.8502 40.0949 34.6052 39.8956C34.3561 39.6921 34.2356 39.3806 34.2356 38.982C34.2356 38.6083 34.3394 38.2969 34.5388 38.11C34.7672 37.8941 35.1159 37.7654 35.6267 37.7654C36.154 37.7654 36.4821 37.89 36.727 38.1058C36.9347 38.2886 37.026 38.6124 37.026 38.9778C37.026 39.3474 36.9306 39.663 36.7188 39.854C36.4738 40.0824 36.1292 40.1946 35.6309 40.1946Z" fill="#003F3C"/>
<path d="M41.4453 38.2763C41.4453 38.0437 41.3954 37.8735 41.3082 37.7365C41.1546 37.5081 40.8597 37.3545 40.3698 37.3545H38.2604V40.6141H38.7711V39.2397H40.2576L41.1671 40.6141H41.7649L40.7809 39.1524C41.0299 39.1234 41.2251 38.9822 41.3289 38.7995C41.4038 38.6749 41.4453 38.4923 41.4453 38.2763ZM40.9303 38.3178C40.9303 38.4091 40.9096 38.5213 40.8722 38.5961C40.8058 38.7164 40.6521 38.7787 40.403 38.7828H38.7752C38.7752 38.7746 38.7752 37.8196 38.7752 37.8196H40.3075C40.6189 37.8196 40.785 37.8943 40.8722 38.0355C40.9096 38.1019 40.9303 38.214 40.9303 38.3178Z" fill="#003F3C"/>
<path d="M46.4119 40.6141V37.3545H45.7392L44.398 40.0369L43.0816 37.3545H42.3965V40.6141H42.8906V38.106L44.1197 40.6141H44.6595L45.9177 38.106V40.6141H46.4119Z" fill="#003F3C"/>
<path d="M47.8697 39.8085H49.9003L50.3155 40.6141H50.872L49.2192 37.3545H48.6089L46.9022 40.6141H47.4462L47.8697 39.8085ZM49.6843 39.3476H48.094L48.7542 38.0978L48.8996 37.7946L49.0449 38.0978L49.6843 39.3476Z" fill="#003F3C"/>
<path d="M54.6128 40.6141V37.3545H54.1184V39.8874L51.9597 37.3545H51.3741V40.6141H51.8766V38.0645L54.0524 40.6141H54.6128Z" fill="#003F3C"/>
<path d="M59.0925 39.3973H58.5522C58.5355 39.5467 58.4773 39.6963 58.3733 39.8083C58.1496 40.07 57.7928 40.182 57.2447 40.182C56.7838 40.182 56.2895 40.0533 56.0523 39.717C55.9282 39.5592 55.8488 39.3267 55.8488 38.9778C55.8488 38.6664 55.9036 38.4339 56.0233 38.2761C56.2223 37.9564 56.6418 37.7903 57.2324 37.7903C57.8051 37.7903 58.1663 37.948 58.3576 38.1681C58.465 38.2844 58.5276 38.4215 58.5478 38.5833H59.088C59.0712 38.4007 59.0131 38.1847 58.8889 38.002C58.6227 37.6075 58.1328 37.2961 57.2357 37.2961C56.3812 37.2961 55.87 37.5702 55.587 37.9812C55.4047 38.2179 55.313 38.5501 55.313 38.9737C55.313 39.4471 55.426 39.7959 55.6206 40.0409C55.9036 40.4271 56.4472 40.6595 57.2693 40.6595C58.1127 40.6595 58.6149 40.4063 58.8643 40.0035C59.0052 39.8083 59.0757 39.5758 59.0925 39.3973Z" fill="#003F3C"/>
<path d="M62.8086 40.6141V40.1366H60.2751V39.2064H62.709V38.7331H60.2751V37.8279H62.7795V37.3545H59.7684V40.6141H62.8086Z" fill="#003F3C"/>
<path d="M24.833 43.8521L25.4541 45.7634H27.4637L25.8379 46.9447L26.4589 48.8559L24.833 47.6747L23.2072 48.8559L23.8283 46.9447L22.2024 45.7634H24.212L24.833 43.8521Z" fill="#003F3C"/>
<path d="M32.0026 43.8523L32.6362 45.7635H34.6869L33.0279 46.9448L33.6616 48.8561L32.0026 47.6748L30.3436 48.8561L30.9772 46.9448L29.3182 45.7635H31.3689L32.0026 43.8523Z" fill="#003F3C"/>
<path d="M39.1151 43.8523L39.7489 45.7635H41.7995L40.1405 46.9448L40.7742 48.8561L39.1151 47.6748L37.4561 48.8561L38.0898 46.9448L36.4308 45.7635H38.4815L39.1151 43.8523Z" fill="#003F3C"/>
<path d="M46.2277 43.8523L46.8613 45.7635H48.912L47.253 46.9448L47.8867 48.8561L46.2277 47.6748L44.5687 48.8561L45.2023 46.9448L43.5433 45.7635H45.594L46.2277 43.8523Z" fill="#003F3C"/>
<path d="M53.397 43.8523L54.0178 45.7635H56.0278L54.4014 46.9448L55.0222 48.8561L53.397 47.6748L51.771 48.8561L52.3921 46.9448L50.7662 45.7635H52.7759L53.397 43.8523Z" fill="#003F3C"/>
<path d="M28.3165 11.606L28.786 13.0511H30.3055L29.0763 13.9442L29.5458 15.3892L28.3165 14.4962L27.0872 15.3892L27.5568 13.9442L26.3275 13.0511H27.847L28.3165 11.606Z" fill="#003F3C"/>
<path d="M33.7373 11.604L34.2165 13.0491H35.7669L34.5126 13.9423L34.9916 15.3873L33.7373 14.4942L32.4829 15.3873L32.9621 13.9423L31.7076 13.0491H33.2581L33.7373 11.604Z" fill="#003F3C"/>
<path d="M39.1148 11.604L39.5938 13.0491H41.1443L39.89 13.9423L40.3691 15.3873L39.1148 14.4942L37.8603 15.3873L38.3395 13.9423L37.0851 13.0491H38.6356L39.1148 11.604Z" fill="#003F3C"/>
<path d="M44.4933 11.604L44.9724 13.0491H46.5229L45.2685 13.9423L45.7476 15.3873L44.4933 14.4942L43.2389 15.3873L43.718 13.9423L42.4636 13.0491H44.0141L44.4933 11.604Z" fill="#003F3C"/>
<path d="M49.913 11.604L50.3826 13.0491H51.9021L50.6728 13.9423L51.1424 15.3873L49.913 14.4942L48.6838 15.3873L49.1533 13.9423L47.9241 13.0491H49.4435L49.913 11.604Z" fill="#003F3C"/>
<path fill-rule="evenodd" clip-rule="evenodd" d="M6.67371 37.6164C4.60153 24.6517 10.6492 11.8247 22.7562 6.31641L22.8679 6.56203C10.8827 12.0148 4.88508 24.7163 6.94014 37.5737C9.21376 51.7983 20.6891 60.3293 34.7417 60.7406L34.7338 61.0104C20.5717 60.5959 8.97071 51.9877 6.67371 37.6164Z" fill="#003F3C"/>
<path d="M20.1309 9.62516C17.8936 9.67616 15.275 10.9379 13.7299 12.7704C14.969 13.9211 16.9626 13.4957 18.3973 13.2604C20.445 12.9246 22.6226 12.274 24.5548 11.3532C23.7603 9.66196 21.6201 9.59127 20.1309 9.62516Z" fill="#003F3C"/>
<path d="M18.3712 6.86501C17.046 8.92936 15.4667 10.9811 13.7479 12.7878C12.31 11.438 13.1779 9.19165 13.7648 7.79473C14.828 5.26351 17.377 3.08071 20.0419 1.96387C20.7733 3.62789 19.1846 5.59795 18.3712 6.86501Z" fill="#003F3C"/>
<path d="M13.6563 15.414C11.5613 16.1587 9.76106 18.2551 8.85718 20.3597C10.3636 21.0601 12.0762 20.0486 13.329 19.3752C15.0493 18.4504 16.8044 17.1743 18.1853 15.6977C16.9376 14.3812 15.0431 14.9212 13.6563 15.414Z" fill="#003F3C"/>
<path d="M11.1171 13.3512C10.6585 15.7057 9.88959 18.1461 8.87978 20.3704C7.11722 19.5391 7.18433 17.1582 7.25983 15.6431C7.38868 13.0569 8.83549 10.1078 10.8498 8.23364C12.083 9.55574 11.4092 11.8514 11.1171 13.3512Z" fill="#003F3C"/>
<path d="M9.62529 22.8878C7.87961 24.265 6.82148 26.8171 6.57642 29.0961C8.2278 29.2857 9.54777 27.7828 10.5299 26.7518C11.8671 25.3479 13.133 23.5871 13.9369 21.745C12.3626 20.8862 10.7624 21.9908 9.62529 22.8878Z" fill="#003F3C"/>
<path d="M6.6009 21.7252C6.91218 24.1028 6.91285 26.6751 6.60146 29.0991C4.68095 28.8632 4.04395 26.5573 3.66768 25.1107C3.01804 22.6137 3.4536 19.3884 4.71909 16.9609C6.30057 17.8364 6.40202 20.2054 6.6009 21.7252Z" fill="#003F3C"/>
<path d="M8.25518 31.0458C6.8738 33.0693 6.38803 36.2404 7.00925 38.7893C8.83468 38.3571 9.73957 36.2904 10.4662 34.8309C11.4318 32.891 12.248 30.6279 12.5401 28.4075C10.5602 27.9955 9.16509 29.7127 8.25518 31.0458Z" fill="#003F3C"/>
<path d="M4.62909 30.8412C5.70533 33.333 6.54523 36.0755 7.03671 38.7832C4.94317 39.2329 3.43641 37.0346 2.56105 35.5769C1.00261 32.9822 0.548606 29.3851 1.1195 26.281C3.03564 26.6652 3.9733 29.3234 4.62909 30.8412Z" fill="#003F3C"/>
<path d="M9.22159 39.8496C8.4799 42.3043 8.99542 45.6414 10.4972 47.9492C12.1474 46.8747 12.3758 44.5099 12.6097 42.8144C12.9181 40.5769 13.0633 38.0982 12.6802 35.7781C10.5694 36.0475 9.71698 38.2097 9.22159 39.8496Z" fill="#003F3C"/>
<path d="M5.55367 40.9006C7.4055 43.0254 9.11371 45.4482 10.5225 47.9334C8.61183 49.1262 6.36975 47.4966 5.00996 46.3434C2.59764 44.2978 1.03126 40.8208 0.659912 37.5429C2.66744 37.2731 4.4366 39.6186 5.55367 40.9006Z" fill="#003F3C"/>
<path d="M13.1134 48.2047C13.2726 51.062 15.1328 54.0602 17.6096 55.7667C18.8058 54.1291 18.056 51.6199 17.648 49.8684C17.0987 47.5102 16.3384 45.0546 15.2086 42.8757C13.2385 43.9169 13.0086 46.323 13.1134 48.2047Z" fill="#003F3C"/>
<path d="M9.78232 50.6182C12.4658 52.1093 15.1415 53.8688 17.6293 55.7411C16.1394 57.703 13.1615 56.9207 11.3155 56.2901C8.06237 55.1788 5.16215 52.2494 3.64734 48.9948C5.56795 48.0055 8.19715 49.7373 9.78232 50.6182Z" fill="#003F3C"/>
<path d="M20.7562 55.185C22.3668 58.1243 26.037 60.0418 29.4932 60.5034C29.8652 58.3666 27.5532 56.2509 26.2932 54.8668C24.4995 52.8963 22.6303 50.8514 20.5346 49.1477C18.9646 50.9707 19.7946 53.4302 20.7562 55.185Z" fill="#003F3C"/>
<path d="M18.4562 58.91C22.1172 59.2907 25.8403 59.8386 29.4992 60.4705C29.1499 63.1666 24.8715 63.6017 22.9292 63.7609C18.9467 64.0872 14.5164 62.4864 11.4316 59.7914C12.9638 57.9886 16.506 58.7074 18.4562 58.91Z" fill="#003F3C"/>
<path d="M25.5075 4.05349C23.0496 4.75469 20.1725 6.08495 18.7512 8.54056C21.3311 8.25936 23.8667 7.34139 26.3463 6.64198C29.1238 5.85845 32.0484 5.27246 34.7376 4.19096C31.7925 3.0127 28.3209 3.25084 25.5075 4.05349Z" fill="#003F3C"/>
<path fill-rule="evenodd" clip-rule="evenodd" d="M73.0596 37.5737C75.1144 24.7163 69.1168 12.0151 57.1319 6.56203L57.2437 6.31641C69.3506 11.8248 75.3985 24.6517 73.3258 37.6164C71.0295 51.9877 59.4282 60.5959 45.2661 61.0104L45.2583 60.7406C59.3108 60.3293 70.7857 51.7983 73.0596 37.5737Z" fill="#003F3C"/>
<path d="M59.8689 9.62516C62.106 9.67616 64.7245 10.9379 66.2703 12.7704C65.0309 13.9211 63.0366 13.4957 61.6027 13.2604C59.5546 12.9246 57.3769 12.274 55.4452 11.3532C56.2393 9.66196 58.3791 9.59127 59.8689 9.62516Z" fill="#003F3C"/>
<path d="M61.6281 6.86501C62.9535 8.92936 64.5329 10.9811 66.2509 12.7878C67.6894 11.438 66.8214 9.19165 66.2342 7.79473C65.1716 5.26351 62.6225 3.08071 59.957 1.96387C59.2255 3.62789 60.8149 5.59795 61.6281 6.86501Z" fill="#003F3C"/>
<path d="M66.3438 15.414C68.4388 16.1587 70.2385 18.2551 71.1423 20.3597C69.6357 21.0601 67.9232 20.0486 66.6704 19.3752C64.9502 18.4504 63.1952 17.1743 61.8149 15.6977C63.0621 14.3812 64.9569 14.9212 66.3438 15.414Z" fill="#003F3C"/>
<path d="M68.8829 13.3512C69.3415 15.7057 70.1099 18.1461 71.1199 20.3704C72.8827 19.5391 72.8156 17.1582 72.7395 15.6431C72.6109 13.0569 71.1647 10.1078 69.1502 8.23364C67.9165 9.55574 68.5909 11.8514 68.8829 13.3512Z" fill="#003F3C"/>
<path d="M70.3743 22.8878C72.1203 24.265 73.1784 26.8171 73.4234 29.0961C71.7724 29.2857 70.4526 27.7828 69.4705 26.7518C68.1327 25.3479 66.8666 23.5871 66.0635 21.745C67.6372 20.8862 69.2378 21.9908 70.3743 22.8878Z" fill="#003F3C"/>
<path d="M73.3998 21.7252C73.0878 24.1026 73.0878 26.6751 73.3987 29.0991C75.3192 28.8632 75.9568 26.5573 76.3326 25.1107C76.9825 22.6137 76.5462 19.3884 75.2812 16.9609C73.6996 17.8364 73.5978 20.2054 73.3998 21.7252Z" fill="#003F3C"/>
<path d="M71.7445 31.0458C73.1259 33.0693 73.6113 36.2404 72.9906 38.7893C71.1651 38.3571 70.2603 36.2905 69.5332 34.8309C68.5679 32.891 67.7514 30.6279 67.4595 28.4075C69.4393 27.9955 70.8352 29.7127 71.7445 31.0458Z" fill="#003F3C"/>
<path d="M75.3707 30.8412C74.2947 33.333 73.4547 36.0755 72.9636 38.7832C75.0564 39.2329 76.563 37.0346 77.4388 35.5769C78.9969 32.9822 79.4511 29.3851 78.8806 26.281C76.9646 26.6652 76.0261 29.3234 75.3707 30.8412Z" fill="#003F3C"/>
<path d="M70.7779 39.8496C71.5195 42.3043 71.005 45.6414 69.5028 47.9492C67.853 46.8747 67.6237 44.5099 67.3899 42.8144C67.0823 40.5769 66.9369 38.0982 67.3195 35.7781C69.4301 36.0475 70.2824 38.2097 70.7779 39.8496Z" fill="#003F3C"/>
<path d="M74.4454 40.9006C72.5943 43.0256 70.8863 45.4482 69.4769 47.9334C71.3874 49.1262 73.63 47.4966 74.9901 46.3434C77.4017 44.2978 78.9687 40.8208 79.3401 37.5429C77.3323 37.2731 75.5628 39.6186 74.4454 40.9006Z" fill="#003F3C"/>
<path d="M66.8851 48.2047C66.7263 51.062 64.8662 54.0602 62.3898 55.7667C61.193 54.1291 61.9435 51.62 62.3506 49.8684C62.8998 47.5102 63.6604 45.0546 64.7901 42.8757C66.761 43.9169 66.9903 46.323 66.8851 48.2047Z" fill="#003F3C"/>
<path d="M70.2173 50.6182C67.5339 52.1093 64.8584 53.8688 62.3708 55.7411C63.8607 57.703 66.8382 56.9207 68.6838 56.2901C71.9376 55.1788 74.8379 52.2494 76.3524 48.9948C74.4319 48.0055 71.8022 49.7373 70.2173 50.6182Z" fill="#003F3C"/>
<path d="M59.2437 55.185C57.633 58.1243 53.9631 60.0418 50.5064 60.5034C50.1344 58.3666 52.4464 56.2509 53.707 54.8668C55.5 52.8963 57.369 50.8514 59.4651 49.1477C61.0355 50.9707 60.2045 53.4302 59.2437 55.185Z" fill="#003F3C"/>
<path d="M61.5432 58.91C57.8823 59.2907 54.1598 59.8386 50.5002 60.4705C50.8497 63.1666 55.1285 63.6017 57.0702 63.7609C61.0533 64.0872 65.4838 62.4864 68.5675 59.7914C67.0363 57.9886 63.4939 58.7074 61.5432 58.91Z" fill="#003F3C"/>
<path d="M54.4922 4.05349C56.9496 4.75469 59.8276 6.08495 61.2481 8.54056C58.6688 8.25936 56.1331 7.34139 53.6534 6.64198C50.8758 5.85845 47.9512 5.27246 45.2621 4.19096C48.2073 3.0127 51.6788 3.25084 54.4922 4.05349Z" fill="#003F3C"/>
<path d="M41.5986 2.78277L40.3374 0L39.1 2.73099L36.2222 0.946718L38.0714 4.8328H42.6703L44.4528 0.946718L41.5986 2.78277Z" fill="#003F3C"/>
<path d="M42.6405 5.43677H38.0343V6.11649H42.6405V5.43677Z" fill="#003F3C"/>
<path d="M40.6665 58.0198L41.4088 60.304H43.8106L41.8675 61.7157L42.6096 64L40.6665 62.5883L38.7234 64L39.4657 61.7157L37.5226 60.304H39.9244L40.6665 58.0198Z" fill="#003F3C"/>
</svg>
