<svg width="75" height="64" viewBox="0 0 75 64" fill="none" xmlns="http://www.w3.org/2000/svg">
<path d="M15.7319 56.5048H19.1397C19.1029 56.8479 19.0293 57.5221 18.7842 58.0002C18.0119 59.655 16.2345 60.5743 12.8636 60.5743C10.1668 60.5743 8.41392 59.9002 7.47007 58.7602C6.82039 58.0002 6.48938 56.946 6.48938 55.5977C6.48938 54.3719 6.79588 53.3545 7.40872 52.6067C8.38941 51.3809 10.1546 50.6455 12.9249 50.6455C16.7003 50.6455 18.2693 51.9939 18.8455 53.4281C19.0416 53.9306 19.1029 54.4945 19.1152 54.8009H15.7074C15.6951 54.5802 15.6093 54.2983 15.4623 54.0899C15.1067 53.5751 14.3222 53.1951 12.8881 53.1951C11.5888 53.1951 10.6449 53.5261 10.2158 54.2002C9.99524 54.5312 9.9094 55.0216 9.9094 55.6344C9.9094 56.2964 10.0197 56.75 10.2527 57.0809C10.7308 57.7918 11.7972 58.0615 12.9004 58.0615C14.1874 58.0615 15.1066 57.804 15.5113 57.2157C15.6584 57.0073 15.7197 56.7622 15.7319 56.5048Z" fill="#003F3C"/>
<path d="M29.6655 57.8652V60.4271H20.4844V50.8047H23.8063V57.8652H29.6655Z" fill="#003F3C"/>
<path d="M41.1081 60.4271V58.0368H34.2069V56.7865H40.8262V54.4452H34.2069V53.2072H41.0223V50.8047H30.9708V60.4271H41.1081Z" fill="#003F3C"/>
<path fill-rule="evenodd" clip-rule="evenodd" d="M51.209 58.6497H46.0117L45.1168 60.4271H41.6478L46.7839 50.8047H50.7432L55.5974 60.4271H52.0549L51.209 58.6497ZM47.0903 56.4924H50.1674L49.0149 54.1633L48.6716 53.293L48.304 54.1756L47.0903 56.4924Z" fill="#003F3C"/>
<path fill-rule="evenodd" clip-rule="evenodd" d="M67.9161 53.7343C67.9161 52.864 67.7078 52.2388 67.2661 51.7853C66.6903 51.1724 65.6968 50.8047 64.1778 50.8047H56.5159V60.4271H59.7893V57.0317H62.7677L65.1577 60.4271H68.8112L65.9061 56.5046C66.5552 56.4065 67.0828 56.0143 67.4252 55.5484C67.7319 55.1194 67.9161 54.482 67.9161 53.7343ZM64.7285 54.0407C64.7285 54.2001 64.7044 54.3963 64.6185 54.5433C64.4961 54.7885 64.1778 54.8866 63.6502 54.8866H59.8009V53.1336H63.5885C64.1035 53.1336 64.4469 53.2195 64.6185 53.5381C64.7044 53.6607 64.7285 53.8569 64.7285 54.0407Z" fill="#003F3C"/>
<path d="M49.8414 6.98025C49.8414 7.13968 49.8173 7.33576 49.7314 7.48284C49.609 7.72802 49.2897 7.8261 48.7628 7.8261H44.9138V6.07324H48.7015C49.2164 6.07324 49.5598 6.15899 49.7314 6.47775C49.8173 6.60034 49.8414 6.79642 49.8414 6.98025Z" fill="#003F3C"/>
<path d="M59.4246 9.43175H62.5013L61.3487 7.10268L61.0054 6.23242L60.6379 7.11503L59.4246 9.43175Z" fill="#003F3C"/>
<path fill-rule="evenodd" clip-rule="evenodd" d="M0.889392 6.95754C1.28628 3.04962 4.58667 0 8.59933 0H66.4009C70.6813 0 74.1506 3.46975 74.1506 7.74996V56.25C74.1506 60.5302 70.6813 64 66.4009 64H8.59933C4.31912 64 0.849365 60.5302 0.849365 56.25V7.74996C0.849365 7.48241 0.862965 7.21814 0.889392 6.95754ZM2.46392 21.6765L28.5119 30.486C29.2215 29.766 30.1871 29.1402 31.3487 28.6525C31.6158 28.5404 31.8915 28.4364 32.1744 28.3407L21.3146 17.322H29.8154L34.5876 27.7552C35.2178 27.6563 35.8656 27.5933 36.5224 27.5681C36.7408 27.5598 36.9593 27.5555 37.1773 27.5555V17.322H44.5391L39.7669 27.7554C40.502 27.8708 41.2158 28.0354 41.8934 28.2476C42.7656 28.5208 43.5595 28.8666 44.2521 29.2724L64.6523 17.322H72.536V21.4581L42.6742 31.5576C42.0465 30.9206 41.1104 30.4071 39.9844 30.0818C38.8584 29.7566 37.5931 29.6342 36.3484 29.7301C35.1037 29.8261 33.9356 30.1362 32.9916 30.621C32.0478 31.106 31.3705 31.744 31.0456 32.4543C30.7207 33.1647 30.7626 33.9155 31.1662 34.612C31.5697 35.3084 32.3168 35.9192 33.3127 36.3669C34.3088 36.8145 35.5091 37.0791 36.7618 37.1272C37.4579 37.1539 38.1529 37.1132 38.8197 37.0085C39.3526 36.9248 39.8679 36.8003 40.3508 36.6369L50.2476 46.6781H43.2432L39.7664 39.0783C38.0682 39.3448 36.2821 39.3443 34.5876 39.0784L31.1114 46.6781H24.1072L32.1743 38.4929C31.419 38.2374 30.7219 37.9245 30.1019 37.5614L14.5392 46.6781H2.46392V45.1572L28.5118 36.3475C27.9125 35.7394 27.5018 35.0704 27.3048 34.3716C27.072 33.5455 27.1448 32.7028 27.5122 31.8998L2.46392 27.9681V21.6765ZM72.536 45.3754L37.1773 33.4167L72.536 38.9668V45.3754ZM72.536 48.2926H2.46392V56.25C2.46392 59.6385 5.21079 62.3853 8.59933 62.3853H66.4009C69.7891 62.3853 72.536 59.6385 72.536 56.25V48.2926ZM19.6597 9.65256V3.74424H16.3746V9.3583C16.3746 10.3635 15.443 11.0377 13.874 11.0377C12.2314 11.0377 11.3365 10.388 11.3365 9.34605V3.74424H8.01465V9.34605C8.01465 12.2634 10.405 13.5015 13.7392 13.5015C17.3063 13.5015 19.6597 12.2512 19.6597 9.65256ZM30.7233 13.3667V10.8047H24.864V3.74424H21.5421V13.3667H30.7233ZM40.5956 3.74424V6.15904H36.526V13.3667H33.1673V6.15904H29.11V3.74424H40.5956ZM53.0282 6.67388C53.0282 5.80362 52.8199 5.17844 52.3791 4.72484C51.8033 4.112 50.8099 3.74424 49.2899 3.74424H41.6288V13.3667H44.9016V9.97123H47.8804L50.2708 13.3667H53.9233L51.0182 9.44414C51.6683 9.34605 52.1949 8.95379 52.5383 8.48804C52.845 8.05908 53.0282 7.42165 53.0282 6.67388ZM63.5431 11.5893H58.3455L57.4514 13.3667H53.9821L59.118 3.74424H63.0773L67.9315 13.3667H64.389L63.5431 11.5893Z" fill="#003F3C"/>
</svg>
