<svg width="134" height="64" viewBox="0 0 134 64" fill="none" xmlns="http://www.w3.org/2000/svg">
<path d="M121.054 4.51861C122.299 6.37909 123.494 8.67421 122.906 11.1338C120.878 9.97314 119.247 8.07813 117.954 6.20735C116.651 4.32401 115.299 2.32132 114.836 0C117.394 0.654234 119.683 2.47034 121.054 4.51861Z" fill="#003F3C"/>
<path d="M11.1143 11.1298C10.5282 8.66975 11.7255 6.37553 12.9727 4.51611C14.3455 2.46906 16.6361 0.654614 19.1943 0.00219727C18.7295 2.32306 17.375 4.32499 16.0712 6.20713C14.7762 8.077 13.1429 9.97079 11.1143 11.1298Z" fill="#003F3C"/>
<path d="M9.32944 15.8486C9.78695 13.9005 9.7768 11.7677 9.34125 9.94038C8.95825 8.33447 8.40094 6.06434 6.56666 5.29834C5.23335 7.43702 4.6974 10.3494 5.47445 12.5317C6.03631 14.1102 7.04673 16.1972 9.14225 16.5203C11.0651 16.9636 13.0095 15.9378 14.5451 15.091C16.2527 14.1494 17.9252 12.6515 18.9414 10.8707C17.0773 9.92978 14.9543 10.6934 13.3572 11.4251C11.6356 12.214 10.0541 13.9065 9.32944 15.8486Z" fill="#003F3C"/>
<path d="M46.6467 17.7201V7.93896H43.3074V11.5026H38.2984V7.93896H34.9591V17.7201H38.2984V14.169H43.3074V17.7201H46.6467Z" fill="#003F3C"/>
<path d="M57.7197 7.93896H61.4078L56.1747 14.493V17.7201H52.823V14.5054L47.6521 7.93896H51.4523L54.5425 11.8513L57.7197 7.93896Z" fill="#003F3C"/>
<path fill-rule="evenodd" clip-rule="evenodd" d="M73.0377 8.77372C73.6981 9.2971 74.0719 10.1818 74.0719 11.4652C74.0719 12.5118 73.8102 13.2967 73.3118 13.8451C72.6389 14.6176 71.5301 14.9664 70.0847 14.9789C69.6361 14.9914 65.7984 14.9789 65.7984 14.9789V17.7201H62.4467V7.93896H70.0349C71.3804 7.93896 72.4022 8.21307 73.0377 8.77372ZM70.5581 12.2253C70.6579 12.0508 70.7077 11.8265 70.7077 11.515C70.7077 11.1911 70.6453 10.9169 70.5333 10.7675C70.3214 10.4559 69.9226 10.3063 69.2748 10.3063H65.7736V12.6987H69.2498C69.9476 12.6987 70.3588 12.5368 70.5581 12.2253Z" fill="#003F3C"/>
<path d="M85.7098 15.2903V17.7201H75.4058V7.93896H85.6235V10.3811H78.6951V11.6396H85.4236V14.0194H78.6951V15.2903H85.7098Z" fill="#003F3C"/>
<path fill-rule="evenodd" clip-rule="evenodd" d="M98.2208 8.93576C98.6706 9.39676 98.8811 10.0322 98.8811 10.9169C98.8811 11.677 98.6948 12.3249 98.3829 12.7611C98.0345 13.2345 97.4984 13.6332 96.8381 13.7329L99.7913 17.7201H96.0779L93.6487 14.2687H90.6214V17.7201H87.2942V7.93896H95.0814C96.6261 7.93896 97.6362 8.31273 98.2208 8.93576ZM95.5297 11.7393C95.6175 11.5898 95.6417 11.3904 95.6417 11.2285C95.6417 11.0416 95.6175 10.8421 95.5297 10.7175C95.3555 10.3936 95.0072 10.3063 94.4832 10.3063H90.6335V12.0882H94.5453C95.0814 12.0882 95.4055 11.9886 95.5297 11.7393Z" fill="#003F3C"/>
<path d="M83.9258 29.9881C83.9258 27.7523 82.5054 26.5773 79.1924 26.2182C78.6539 26.1529 77.0708 25.9897 76.0753 25.9081C73.513 25.6306 72.7461 25.4839 72.7461 24.831C72.7461 24.2435 73.3499 23.9661 75.6509 23.9661C77.283 23.9661 78.197 24.2761 78.5559 24.7494C78.7355 24.9779 78.8008 25.1574 78.8171 25.337H83.5173C83.4683 24.9452 83.3052 24.3903 83.0439 23.9008C82.1954 22.2687 80.1553 20.9631 75.7653 20.9631C70.8202 20.9631 68.1112 22.7094 68.1112 24.9942C68.1112 27.1974 69.6451 28.4867 73.7904 28.8621C74.2592 28.9022 75.2658 28.9973 76.09 29.0752L76.1408 29.08L76.1501 29.0809L76.1537 29.0812L76.5976 29.1232C78.7681 29.3517 79.3557 29.4985 79.3557 30.1841C79.3557 30.8204 78.7844 31.1631 76.3854 31.1631C74.5249 31.1631 73.4315 30.8857 73.0397 30.4124C72.8766 30.2166 72.7623 29.9228 72.7297 29.727H68.0295C68.0785 30.0534 68.1601 30.5757 68.3395 31C69.1393 32.7952 71.2283 34.1661 76.0753 34.1661C81.2814 34.1661 83.9258 32.6973 83.9258 29.9881Z" fill="#003F3C"/>
<path fill-rule="evenodd" clip-rule="evenodd" d="M50.6054 32.6649C51.095 32.0937 51.3398 31.2286 51.3398 30.3474C51.3398 29.5967 51.144 28.8785 50.736 28.4053C50.2463 27.7688 49.3813 27.3119 48.4675 27.1977C49.0877 27.116 49.6751 26.7897 50.0178 26.3653C50.4422 25.8594 50.638 25.1739 50.638 24.3416C50.638 23.5093 50.3932 22.7749 49.8384 22.22C49.2182 21.5835 48.0921 21.1592 46.3296 21.1592H35.2645V33.9705H46.6396C48.4511 33.9705 49.8547 33.5787 50.6054 32.6649ZM46.101 25.1087C46.101 25.4188 46.0031 25.6799 45.84 25.8594C45.6114 26.0715 45.1871 26.1532 44.6322 26.1532H39.5404V24.0642H44.518C45.1382 24.0642 45.5625 24.1458 45.7909 24.358C46.0031 24.5374 46.101 24.7985 46.101 25.1087ZM46.5907 30.7228C46.3296 30.9676 45.8725 31.0655 45.1055 31.0655H39.5404V28.9276H45.1545C45.8725 28.9276 46.2969 29.0254 46.5416 29.2376C46.7376 29.4334 46.819 29.6783 46.819 30.0047C46.819 30.3148 46.7538 30.5596 46.5907 30.7228Z" fill="#003F3C"/>
<path d="M66.7065 30.7881V33.9705H53.2098V21.1592H66.5923V24.358H57.5182V26.0063H66.3312V29.1234H57.5182V30.7881H66.7065Z" fill="#003F3C"/>
<path d="M99.8057 24.3743V21.1592H84.5145V24.3743H89.9165V33.9705H94.3871V24.3743H99.8057Z" fill="#003F3C"/>
<path d="M99.4187 45.307H98.6994L98.6479 44.6143C98.4283 44.9649 97.9634 45.3858 96.982 45.3858C95.3237 45.3858 94.5529 44.3863 94.5529 41.8343C94.5529 39.8613 95.0435 38.2742 97.0683 38.2742C98.8236 38.2742 99.3582 39.423 99.3839 40.6594H98.507C98.4813 39.8527 98.1209 39.1073 97.0865 39.1073C95.8416 39.1073 95.4812 39.8527 95.4812 41.8608C95.4812 43.9566 95.9295 44.6143 97.1047 44.6143C97.9285 44.6143 98.4101 44.1583 98.5691 43.6147V42.308H96.7972V41.5099H99.4096V43.527C99.4096 44.1296 99.4157 44.7727 99.4172 45.0961L99.4187 45.2499V45.307Z" fill="#003F3C"/>
<path fill-rule="evenodd" clip-rule="evenodd" d="M35.4299 43.562H37.8853L38.3938 45.3071H39.3234L37.2889 38.3621H36.1578L33.9829 45.3071H34.9037L35.4299 43.562ZM37.666 42.7816H35.6667C35.6667 42.7816 36.5347 39.9755 36.5523 39.9142C36.5611 39.8703 36.7015 39.2477 36.7015 39.2477L36.7985 39.7082L36.8417 39.9142C36.8505 39.958 37.666 42.7816 37.666 42.7816Z" fill="#003F3C"/>
<path d="M45.9793 38.3621H46.8211L45.1813 45.3071H44.1377C44.1377 45.3071 42.9715 39.9054 42.9715 39.6773C42.9627 39.9054 41.7701 45.3071 41.7701 45.3071H40.7266L39.0868 38.3621H40.0338C40.0338 38.3621 41.3053 43.8602 41.3053 44.0795C41.3053 43.8602 42.4717 38.3621 42.4717 38.3621H43.5151C43.5151 38.3621 44.6814 43.869 44.6814 44.0795C44.6814 43.869 45.9793 38.3621 45.9793 38.3621Z" fill="#003F3C"/>
<path fill-rule="evenodd" clip-rule="evenodd" d="M50.4221 43.562H47.9668L47.4407 45.3071H46.5199L48.6946 38.3621H49.8259L51.8604 45.3071H50.9308L50.4221 43.562ZM48.2036 42.7816H50.203C50.203 42.7816 49.3875 39.958 49.3787 39.9142L49.3124 39.5981L49.2383 39.2477C49.2383 39.2477 49.0981 39.8703 49.0893 39.9142C49.0717 39.9755 48.2036 42.7816 48.2036 42.7816Z" fill="#003F3C"/>
<path fill-rule="evenodd" clip-rule="evenodd" d="M55.2398 38.3621C56.3096 38.3621 56.8884 38.8618 56.8884 40.3175C56.8884 41.554 56.4236 41.9661 55.9412 42.1063L57.2743 45.3071H56.3096L55.0732 42.2819H53.3896V45.3071H52.5126V38.3621H55.2398ZM55.1083 41.4925C55.801 41.4925 55.9676 41.133 55.9676 40.3438C55.9676 39.4494 55.7045 39.1776 55.0644 39.1776H53.3982V41.4925H55.1083Z" fill="#003F3C"/>
<path fill-rule="evenodd" clip-rule="evenodd" d="M62.7267 41.7206C62.7267 43.3604 62.604 44.0268 62.2533 44.5267C61.9026 45.0091 61.3501 45.3071 60.4555 45.3071H58.0704V38.3621H60.3942C61.2712 38.3621 61.9551 38.6251 62.2709 39.0987C62.6216 39.6072 62.7267 40.2386 62.7267 41.7206ZM60.2715 44.4828C60.8064 44.4828 61.2536 44.3426 61.4815 44.0356C61.7272 43.7024 61.7973 43.0271 61.7973 41.7206C61.7973 40.6245 61.7358 40.0369 61.4815 39.6598C61.2448 39.3354 60.7888 39.195 60.2539 39.195H58.9561V44.4828H60.2715Z" fill="#003F3C"/>
<path d="M71.9783 38.3621H72.8202L71.1803 45.3071H70.1368C70.1368 45.3071 68.9705 39.9054 68.9705 39.6773C68.9617 39.9054 67.7691 45.3071 67.7691 45.3071H66.7256L65.0858 38.3621H66.0328C66.0328 38.3621 67.3043 43.8602 67.3043 44.0795C67.3043 43.8602 68.4706 38.3621 68.4706 38.3621H69.5142C69.5142 38.3621 70.6804 43.869 70.6804 44.0795C70.6804 43.869 71.9783 38.3621 71.9783 38.3621Z" fill="#003F3C"/>
<path d="M74.3707 38.3621V45.3071H73.4587V38.3621H74.3707Z" fill="#003F3C"/>
<path d="M80.0796 38.3621V45.3071H79.0711L76.4842 39.9228V45.3071H75.6335V38.3621H76.6947L79.2202 43.6673V38.3621H80.0796Z" fill="#003F3C"/>
<path d="M85.7658 38.3621V45.3071H84.7572L82.1707 39.9228V45.3071H81.3201V38.3621H82.3812L84.9071 43.6673V38.3621H85.7658Z" fill="#003F3C"/>
<path d="M87.9175 38.3621V45.3071H87.0059V38.3621H87.9175Z" fill="#003F3C"/>
<path d="M93.627 38.3621V45.3071H92.6184L90.0318 39.9228V45.3071H89.1807V38.3621H90.2423L92.7684 43.6673V38.3621H93.627Z" fill="#003F3C"/>
<path d="M45.3022 58.9951L44.2974 55.9023L43.2924 58.9951H40.0406L42.6714 60.9066L41.6665 63.9994L44.2974 62.0879L46.9283 63.9994L45.9233 60.9066L48.5542 58.9951H45.3022Z" fill="#003F3C"/>
<path d="M56.9233 58.9959L55.8979 55.9031L54.8725 58.9959H51.5542L54.2388 60.9072L53.2134 64L55.8979 62.0886L58.5825 64L57.5571 60.9072L60.2416 58.9959H56.9233Z" fill="#003F3C"/>
<path d="M68.4332 58.9959L67.4078 55.9031L66.3824 58.9959H63.0641L65.7486 60.9072L64.7232 64L67.4078 62.0886L70.0923 64L69.0668 60.9072L71.7515 58.9959H68.4332Z" fill="#003F3C"/>
<path d="M79.9422 58.9959L78.9168 55.9031L77.8914 58.9959H74.5731L77.2576 60.9072L76.2322 64L78.9168 62.0886L81.6013 64L80.5759 60.9072L83.2605 58.9959H79.9422Z" fill="#003F3C"/>
<path d="M91.5224 58.9959L90.5183 55.9031L89.5127 58.9959H86.2612L88.8918 60.9072L87.8877 64L90.5183 62.0886L93.1489 64L92.1433 60.9072L94.7754 58.9959H91.5224Z" fill="#003F3C"/>
<path d="M3.40848 21.1061C4.35409 22.5487 5.81734 24.3557 7.95087 24.3042C9.89101 24.4012 11.5672 23.0771 12.8872 21.972C14.3088 20.7818 15.5919 19.0413 16.1336 17.1596C14.1493 16.5823 12.2494 17.6518 10.8327 18.6605C9.35324 19.7141 8.21544 21.6423 7.97101 23.6221C7.95268 21.6387 7.41582 19.5901 6.55032 17.9398C5.75903 16.4311 4.65638 14.3918 2.68913 13.9841C1.91404 16.3317 2.16135 19.2039 3.40848 21.1061Z" fill="#003F3C"/>
<path d="M8.58203 32.0741C6.60191 32.4059 4.67041 31.1926 3.41601 29.7656C1.80102 27.9283 0.840108 25.4636 1.03608 22.9961C3.07026 23.0477 4.61089 24.8061 5.74959 26.1358C6.97598 27.5679 7.9808 29.452 8.46285 31.3956C8.25083 29.4586 8.90113 27.367 10.1083 26.0746C11.2735 24.827 12.9057 23.4674 14.9366 23.6856C14.8928 25.6497 13.9083 27.5209 12.8929 28.9224C11.9463 30.2284 10.4882 31.8439 8.58203 32.0741Z" fill="#003F3C"/>
<path d="M4.92413 38.5998C6.74781 39.7871 8.95963 40.9623 11.2841 40.0729C13.1911 39.3982 14.4036 37.4787 15.1493 35.7168C15.9392 33.8499 16.4668 31.6973 16.1015 29.6541C14.006 29.84 12.2684 31.3393 11.3455 33.1695C10.3806 35.0828 10.1956 37.3602 10.9367 39.3663C9.84164 37.3025 8.24013 35.6327 6.54366 34.0898C5.00152 32.6873 2.78015 31.2098 0.542725 31.4877C0.968431 34.2538 2.65642 37.1235 4.92413 38.5998Z" fill="#003F3C"/>
<path d="M15.9816 47.5517C17.7762 46.4788 18.4984 44.2214 18.7936 42.2871C19.1117 40.2009 19.0981 37.9002 18.2317 35.9211C16.1497 36.5027 14.7205 38.3766 14.2486 40.4292C13.7501 42.5977 14.1708 44.9088 15.3835 46.7552C13.7714 44.9057 11.6277 43.3785 9.5734 42.3076C7.58905 41.2733 5.15459 40.0257 2.77148 40.7791C3.92064 43.5837 6.37886 46.1949 9.10332 47.275C11.2132 48.1113 13.78 48.9383 15.9816 47.5517Z" fill="#003F3C"/>
<path d="M24.4895 48.2773C24.7528 50.2909 24.7454 52.8448 23.1821 54.3947C21.2284 56.3943 18.205 56.0085 15.8731 55.5685C12.7425 54.9774 9.21839 52.8422 7.32959 49.9992C9.63637 48.729 12.4576 49.5415 14.7414 50.1993L14.8718 50.2367C17.421 50.9701 20.1376 52.1514 22.4095 53.7654C20.5965 52.1271 19.2754 49.7225 19.2108 47.2988C19.1526 45.1311 20.0935 42.8119 22.1183 41.7786C23.5319 43.6339 24.1938 46.0159 24.4895 48.2773Z" fill="#003F3C"/>
<path d="M33.5625 60.0966C34.7138 57.905 33.5731 55.3329 32.6641 53.4318C31.5895 51.1844 30.1212 48.894 28.02 47.249C26.0023 48.9879 26.1942 51.476 26.794 53.6383C27.5073 56.2093 29.9802 58.401 32.541 59.6499C29.5753 58.544 26.3364 57.8802 23.2548 57.6842L22.9427 57.6641C20.467 57.5028 17.2442 57.2929 15.2715 59.1046C18.2542 61.6402 22.4908 63.1032 26.2248 63.0271C28.7271 62.9762 32.1603 62.6802 33.5625 60.0966Z" fill="#003F3C"/>
<path d="M124.687 15.8555C123.964 13.912 122.383 12.2174 120.663 11.427C119.065 10.694 116.943 9.9291 115.079 10.8683C116.094 12.6499 117.764 14.1491 119.471 15.0919C121.005 15.9397 122.948 16.9668 124.871 16.5254C126.967 16.2043 127.98 14.1177 128.544 12.5392C129.324 10.358 128.791 7.44498 127.459 5.30493C125.624 6.06987 125.064 8.3394 124.68 9.94515C124.243 11.7729 124.231 13.9064 124.687 15.8555Z" fill="#003F3C"/>
<path d="M123.18 18.6646C124.658 19.7187 125.792 21.6458 126.036 23.6242C126.057 21.6418 126.596 19.5952 127.463 17.9466C128.255 16.4384 129.36 14.4 131.327 13.9937C132.1 16.3419 131.85 19.214 130.601 21.1151C129.656 22.5552 128.193 24.3584 126.063 24.3101C124.12 24.4093 122.442 23.0821 121.122 21.9747C119.701 20.7833 118.42 19.0419 117.881 17.1599C119.865 16.5838 121.764 17.6548 123.18 18.6646Z" fill="#003F3C"/>
<path d="M125.537 31.4082C125.753 29.4696 125.105 27.3736 123.896 26.0786C122.733 24.8302 121.102 23.4693 119.071 23.686C119.112 25.6501 120.095 27.5222 121.11 28.9244C122.055 30.2306 123.51 31.8461 125.415 32.0788C127.396 32.4143 129.33 31.2017 130.587 29.7748C132.203 27.9388 133.166 25.4748 132.974 23.0071C130.938 23.0574 129.397 24.8144 128.256 26.1432C127.027 27.5761 126.02 29.4623 125.537 31.4082Z" fill="#003F3C"/>
<path d="M122.653 33.1731C123.616 35.0875 123.8 37.3654 123.056 39.3708C124.152 37.3074 125.756 35.6386 127.454 34.0968C128.997 32.6953 131.22 31.2198 133.457 31.4992C133.03 34.2652 131.338 37.1337 129.07 38.6081C127.246 39.7924 125.037 40.9652 122.715 40.0794C120.806 39.4059 119.593 37.4825 118.847 35.7175C118.058 33.8501 117.533 31.6972 117.901 29.6541C119.995 29.8417 121.732 31.3423 122.653 33.1731Z" fill="#003F3C"/>
<path d="M118.605 46.7517C119.816 44.9071 120.239 42.5982 119.743 40.4307C119.274 38.3777 117.846 36.5027 115.764 35.9197C114.896 37.8978 114.881 40.1984 115.196 42.285C115.489 44.2156 116.207 46.4684 117.991 47.5452C120.195 48.9427 122.768 48.1162 124.88 47.2802C127.606 46.2021 130.067 43.5927 131.218 40.7887C128.836 40.0338 126.401 41.2796 124.416 42.3124C122.362 43.3811 120.218 44.9051 118.605 46.7517Z" fill="#003F3C"/>
<path d="M109.494 48.2714C109.229 50.2845 109.234 52.8383 110.796 54.3895C112.747 56.3907 115.771 56.007 118.104 55.5685C121.235 54.9799 124.761 52.8469 126.653 50.0056C124.348 48.7339 121.525 49.544 119.241 50.1999L119.109 50.2374C116.56 50.9686 113.843 52.1474 111.57 53.7591C113.385 52.1221 114.707 49.7195 114.773 47.2967C114.834 45.1291 113.895 42.8091 111.872 41.7742C110.456 43.6284 109.792 46.0102 109.494 48.2714Z" fill="#003F3C"/>
<path d="M107.744 63.0194C105.243 62.9665 101.809 62.668 100.41 60.0832L100.39 60.0478C99.2727 57.8629 100.409 55.3093 101.314 53.4194C102.391 51.1728 103.861 48.8834 105.963 47.2402C107.981 48.9805 107.785 51.4684 107.184 53.6301C106.468 56.2007 103.993 58.3908 101.431 59.6377C104.398 58.534 107.637 57.8726 110.719 57.6788L111.032 57.6588C113.508 57.4994 116.731 57.2923 118.701 59.105C115.716 61.6381 111.479 63.0982 107.744 63.0194Z" fill="#003F3C"/>
</svg>
