<svg width="48" height="48" viewBox="0 0 48 48" fill="none" xmlns="http://www.w3.org/2000/svg">
<path fill-rule="evenodd" clip-rule="evenodd" d="M18.623 12H29.3767C33.0289 12 36.0001 14.9712 36 18.6231V29.3769C36 33.0288 33.0289 36 29.3767 36H18.623C14.9711 36 12 33.0289 12 29.3769V18.6231C12 14.9712 14.9711 12 18.623 12ZM29.3769 33.8705C31.8548 33.8705 33.8708 31.8547 33.8708 29.3768H33.8706V18.6231C33.8706 16.1453 31.8547 14.1293 29.3767 14.1293H18.623C16.1452 14.1293 14.1294 16.1453 14.1294 18.6231V29.3768C14.1294 31.8547 16.1452 33.8707 18.623 33.8705H29.3769ZM17.7143 24.0001C17.7143 20.534 20.534 17.7142 24 17.7142C27.466 17.7142 30.2857 20.534 30.2857 24.0001C30.2857 27.466 27.466 30.2857 24 30.2857C20.534 30.2857 17.7143 27.466 17.7143 24.0001ZM19.8786 24C19.8786 26.2724 21.7276 28.1211 24 28.1211C26.2724 28.1211 28.1214 26.2724 28.1214 24C28.1214 21.7273 26.2726 19.8785 24 19.8785C21.7274 19.8785 19.8786 21.7273 19.8786 24Z" fill="#003F3C"/>
<mask id="mask0_37_1150" style="mask-type:luminance" maskUnits="userSpaceOnUse" x="12" y="12" width="24" height="24">
<path fill-rule="evenodd" clip-rule="evenodd" d="M18.623 12H29.3767C33.0289 12 36.0001 14.9712 36 18.6231V29.3769C36 33.0288 33.0289 36 29.3767 36H18.623C14.9711 36 12 33.0289 12 29.3769V18.6231C12 14.9712 14.9711 12 18.623 12ZM29.3769 33.8705C31.8548 33.8705 33.8708 31.8547 33.8708 29.3768H33.8706V18.6231C33.8706 16.1453 31.8547 14.1293 29.3767 14.1293H18.623C16.1452 14.1293 14.1294 16.1453 14.1294 18.6231V29.3768C14.1294 31.8547 16.1452 33.8707 18.623 33.8705H29.3769ZM17.7143 24.0001C17.7143 20.534 20.534 17.7142 24 17.7142C27.466 17.7142 30.2857 20.534 30.2857 24.0001C30.2857 27.466 27.466 30.2857 24 30.2857C20.534 30.2857 17.7143 27.466 17.7143 24.0001ZM19.8786 24C19.8786 26.2724 21.7276 28.1211 24 28.1211C26.2724 28.1211 28.1214 26.2724 28.1214 24C28.1214 21.7273 26.2726 19.8785 24 19.8785C21.7274 19.8785 19.8786 21.7273 19.8786 24Z" fill="white"/>
</mask>
<g mask="url(#mask0_37_1150)">
</g>
</svg>
