<svg width="80" height="80" viewBox="0 0 80 80" fill="none" xmlns="http://www.w3.org/2000/svg">
<path d="M72.1794 48.7376C71.8258 48.7376 71.5366 48.4515 71.5366 48.098C71.5109 42.3255 70.0452 36.5499 67.1816 30.9413C64.6874 26.056 63.1608 21.9325 62.5276 18.3616H57.6745V22.2763C57.6745 22.527 57.5298 22.752 57.3048 22.8581C57.0798 22.9641 56.813 22.9288 56.6202 22.7681L47.817 15.4175C47.669 15.2954 47.5856 15.1154 47.5856 14.9226C47.5856 14.7297 47.669 14.5498 47.817 14.4277L56.6202 7.07708C56.813 6.91638 57.0798 6.88105 57.3048 6.98712C57.5298 7.09318 57.6745 7.32135 57.6745 7.56884V11.4836H62.4441C62.5115 9.15015 62.8137 6.79427 63.2797 4.93012C63.3665 4.58622 63.7169 4.37732 64.0608 4.4641C64.4046 4.55088 64.6136 4.90119 64.5267 5.24509C64.0382 7.18316 63.7426 9.69335 63.7169 12.1328C63.7137 12.4863 63.4275 12.7692 63.074 12.7692H57.0348C56.6813 12.7692 56.3921 12.4799 56.3921 12.1264V8.94126L49.2344 14.9194L56.3921 20.8974V17.7124C56.3921 17.3589 56.6813 17.0696 57.0348 17.0696H63.074C63.3922 17.0696 63.6622 17.301 63.7104 17.6127C64.2601 21.1707 65.7738 25.3361 68.3322 30.35C71.2891 36.1417 72.8029 42.1102 72.8287 48.0851C72.8222 48.4483 72.5361 48.7376 72.1794 48.7376Z" fill="#003F3C"/>
<path fill-rule="evenodd" clip-rule="evenodd" d="M59.68 75.4623C59.7828 75.5266 59.8985 75.5556 60.0111 75.5556C60.2295 75.5556 60.4417 75.4431 60.5639 75.2373C65.6292 66.7909 68.1779 57.6565 68.1361 48.0884C68.1104 42.1102 66.5966 36.1449 63.6397 30.3533C62.3026 27.737 61.2355 25.0276 60.4706 22.3021C60.3742 21.9613 60.0175 21.7621 59.6768 21.8585C59.336 21.9549 59.1367 22.3117 59.2332 22.6524C59.9669 25.2668 60.9685 27.8671 62.2145 30.3885C60.6747 31.2703 54.0512 34.5155 39.9682 34.5155C26.267 34.5155 19.5883 31.4181 17.8404 30.4533C19.0972 27.9136 20.1088 25.2933 20.8511 22.6589C20.9475 22.3149 20.7482 21.9613 20.4076 21.8649C20.0637 21.7685 19.7101 21.9677 19.6136 22.3085C18.8455 25.0308 17.7816 27.7402 16.4447 30.3597L16.4331 30.3823C16.4255 30.396 16.4184 30.4099 16.4119 30.4239C14.4609 34.2578 13.1429 38.1702 12.4707 42.1119C12.4365 42.1903 12.4175 42.2767 12.4175 42.3673C12.4175 42.3849 12.4182 42.4022 12.4196 42.4194C12.1139 44.3066 11.9563 46.2002 11.9482 48.0948C11.9032 57.663 14.452 66.7973 19.5205 75.2438C19.6426 75.4431 19.8547 75.5556 20.0733 75.5556C20.1858 75.5556 20.2983 75.5234 20.4043 75.4688C20.7096 75.2888 20.8093 74.8934 20.6261 74.5881C15.6829 66.3441 13.1952 57.4348 13.237 48.1044C13.2436 46.4065 13.3751 44.7085 13.6304 43.0147C25.2975 43.2029 32.8421 49.148 35.7803 54.2496C36.5461 55.5813 37.8915 56.4691 39.3864 56.6688V74.9127C39.3864 75.2663 39.6758 75.5556 40.0293 75.5556C40.3828 75.5556 40.6721 75.2663 40.6721 74.9127V56.669C42.169 56.4694 43.5123 55.5816 44.2783 54.2496C47.2217 49.1444 54.7751 43.1945 66.4532 43.0143C66.708 44.7059 66.8398 46.4018 66.8473 48.098C66.8891 57.4284 64.4014 66.3409 59.4583 74.5817C59.2783 74.8838 59.3746 75.2791 59.68 75.4623ZM66.2363 41.7325C54.1304 41.9854 46.2611 48.2388 43.1662 53.6101C42.5301 54.7145 41.3549 55.4077 40.0885 55.4287C40.069 55.4269 40.0493 55.426 40.0293 55.426C40.0093 55.426 39.9896 55.4269 39.9701 55.4287C38.7037 55.4077 37.5285 54.7145 36.8924 53.6101C33.8027 48.2425 25.9392 41.9941 13.8473 41.733C14.487 38.3272 15.6274 34.9422 17.26 31.6114C19.2534 32.7226 26.0441 35.8042 39.9682 35.8042C54.1817 35.8042 60.9623 32.5932 62.7946 31.5447C64.4424 34.8957 65.5926 38.303 66.2363 41.7325Z" fill="#003F3C"/>
<path d="M7.11108 48.0913C7.11108 48.448 7.39714 48.7373 7.75389 48.7373C8.11065 48.7373 8.39668 48.4512 8.40309 48.1041C8.4256 42.3316 9.89117 36.5592 12.7581 30.9475C15.249 26.0621 16.7757 21.9386 17.4121 18.3677H22.2653V22.2825C22.2653 22.5299 22.4099 22.7581 22.6349 22.8643C22.8599 22.9703 23.1266 22.9349 23.3195 22.7742L32.1227 15.4237C32.2706 15.3016 32.3542 15.1216 32.3542 14.9287C32.3542 14.7359 32.2706 14.5559 32.1227 14.4338L23.3195 7.08322C23.1266 6.92252 22.8599 6.8872 22.6349 6.99326C22.4099 7.09932 22.2653 7.32428 22.2653 7.57498V11.4897H17.4956C17.4282 9.15634 17.1292 6.7972 16.66 4.93626C16.5732 4.59236 16.2229 4.38342 15.879 4.4702C15.5351 4.55698 15.3262 4.90733 15.413 5.25123C15.8983 7.1893 16.1939 9.69945 16.2229 12.1389C16.2261 12.4924 16.5122 12.7754 16.8657 12.7754H22.9049C23.2584 12.7754 23.5477 12.486 23.5477 12.1325V8.94737L30.7054 14.9255L23.5477 20.9036V17.7186C23.5477 17.365 23.2584 17.0757 22.9049 17.0757H16.8657C16.5475 17.0757 16.2776 17.3071 16.2293 17.6188C15.6765 21.1768 14.1659 25.3454 11.6075 30.3562C8.6506 36.1478 7.13679 42.1131 7.11108 48.0913Z" fill="#003F3C"/>
<path fill-rule="evenodd" clip-rule="evenodd" d="M38.9237 26.2488C38.9237 26.8595 39.4186 27.3544 40.0293 27.3544C40.64 27.3544 41.135 26.8595 41.135 26.2488C41.135 25.6381 40.64 25.1432 40.0293 25.1432C39.4186 25.1432 38.9237 25.6381 38.9237 26.2488ZM39.8493 26.2488C39.8493 26.1491 39.9297 26.0688 40.0293 26.0688C40.129 26.0688 40.2093 26.1491 40.2093 26.2488C40.2093 26.3484 40.129 26.4288 40.0293 26.4288C39.9297 26.4288 39.8493 26.3484 39.8493 26.2488Z" fill="#003F3C"/>
</svg>
