<svg width="80" height="80" viewBox="0 0 80 80" fill="none" xmlns="http://www.w3.org/2000/svg">
<path fill-rule="evenodd" clip-rule="evenodd" d="M40.5726 63.3061H40.3886C38.2272 63.3061 36.0871 62.4488 34.5144 60.9456C32.9206 59.4212 31.9638 57.2811 31.8913 55.0775C31.7856 51.8507 33.5244 48.9136 35.0518 46.7131C35.4864 46.0883 35.9392 45.4604 36.3799 44.8566L36.3855 44.8489C37.6245 43.1397 38.905 41.3732 39.9478 39.3448C40.0504 39.1425 40.2588 39.0157 40.4852 39.0157C40.7116 39.0157 40.9198 39.1425 41.0224 39.3448C42.0669 41.3763 43.3497 43.1452 44.5903 44.8536C45.031 45.4604 45.4838 46.0853 45.9185 46.7131C47.4459 48.9136 49.1846 51.8507 49.079 55.0775C49.0065 57.2811 48.0496 59.4212 46.4558 60.9456C44.8862 62.4488 42.746 63.3061 40.5726 63.3061ZM40.4791 62.0987C42.3807 62.1077 44.2553 61.3802 45.6228 60.0732C46.9902 58.7661 47.8111 56.9279 47.8746 55.0382C47.9681 52.1677 46.3502 49.4479 44.9285 47.4013C44.4998 46.7855 44.0501 46.1637 43.6154 45.563C42.5498 44.096 41.4541 42.5868 40.4882 40.8873C39.5192 42.5868 38.4265 44.096 37.3609 45.5661L37.2361 45.7386L37.2345 45.7407C36.8395 46.2863 36.435 46.8451 36.0478 47.4013C34.6261 49.4479 33.0081 52.1646 33.1017 55.0352C33.1651 56.9279 33.9831 58.7631 35.3536 60.0701C36.718 61.3832 38.5895 62.1228 40.4791 62.0987Z" fill="#003F3C"/>
<path d="M40.5728 67.58H40.4038C37.1408 67.58 33.9168 66.2881 31.5624 64.0331C31.3209 63.8038 31.3119 63.4204 31.5443 63.1789C31.7737 62.9375 32.1571 62.9314 32.3985 63.1608C34.5327 65.2013 37.4516 66.3725 40.4068 66.3725H40.5758C43.531 66.3725 46.4499 65.2013 48.584 63.1608C48.8256 62.9314 49.2089 62.9375 49.4383 63.1789C49.6677 63.4204 49.6616 63.8008 49.4201 64.0331C47.0567 66.2881 43.8359 67.58 40.5728 67.58Z" fill="#003F3C"/>
<path fill-rule="evenodd" clip-rule="evenodd" d="M23.1859 75.1112H57.7906C60.2628 75.1112 62.5297 73.8646 63.8609 71.7757C65.1861 69.6869 65.3461 67.103 64.2925 64.8663L47.8747 30.0231C47.0083 28.1848 46.5495 26.1382 46.5495 24.1067V11.0998C47.8777 10.8221 48.8798 9.63879 48.8798 8.22912V6.93415C48.8798 5.3162 47.5637 4.00012 45.9458 4.00012H35.0367C33.4188 4.00012 32.1027 5.3162 32.1027 6.93415V8.22912C32.1027 9.63879 33.1048 10.8221 34.433 11.0998V24.1067C34.433 26.1412 33.9741 28.1848 33.1078 30.0231L16.69 64.8663C15.6365 67.103 15.7965 69.6869 17.1216 71.7757C18.4437 73.8646 20.7137 75.1112 23.1859 75.1112ZM33.3041 6.93415C33.3041 5.9833 34.0798 5.20754 35.0307 5.20754H45.9397C46.8906 5.20754 47.6663 5.9833 47.6663 6.93415V8.22912C47.6663 9.17994 46.8906 9.95577 45.9397 9.95577C45.6077 9.95577 45.336 10.2274 45.336 10.5594V14.0247H42.2058C41.8738 14.0247 41.6021 14.2964 41.6021 14.6285C41.6021 14.9605 41.8738 15.2322 42.2058 15.2322H45.336V18.0878H40.4883C40.1562 18.0878 39.8845 18.3594 39.8845 18.6914C39.8845 19.0235 40.1562 19.2951 40.4883 19.2951H45.336V22.1537H42.2058C41.8738 22.1537 41.6021 22.4254 41.6021 22.7575C41.6021 23.0895 41.8738 23.3611 42.2058 23.3611H45.336V24.1067C45.336 24.8124 45.3869 25.5192 45.4867 26.2197H40.4883C40.1562 26.2197 39.8845 26.4913 39.8845 26.8234C39.8845 27.1554 40.1562 27.4271 40.4883 27.4271H45.7087C45.9509 28.4993 46.3088 29.5452 46.7759 30.5362L63.1938 65.3794C64.0722 67.2388 63.9364 69.388 62.8346 71.1267C61.7328 72.8624 59.8462 73.9008 57.7876 73.9008H23.1829C21.1242 73.9008 19.2376 72.8655 18.1358 71.1267C17.0341 69.3911 16.8982 67.2418 17.7766 65.3794L34.1946 30.5362C35.1364 28.538 35.6344 26.3163 35.6344 24.1067V10.5594C35.6344 10.2274 35.3627 9.95577 35.0307 9.95577C34.0798 9.95577 33.3041 9.17994 33.3041 8.22912V6.93415Z" fill="#003F3C"/>
</svg>
