<svg width="80" height="80" viewBox="0 0 80 80" fill="none" xmlns="http://www.w3.org/2000/svg">
<path d="M44.9469 21.817C45.0661 21.9362 45.222 21.9972 45.3777 21.9972C45.5365 21.9972 45.6924 21.9392 45.8115 21.817C46.0498 21.5787 46.0498 21.1907 45.8115 20.9524L40.9222 16.0632L45.8146 11.1707C46.0528 10.9325 46.0528 10.5445 45.8146 10.3063C45.5763 10.068 45.1884 10.068 44.95 10.3063L40.0577 15.1987L35.1653 10.3063C34.927 10.068 34.539 10.068 34.3008 10.3063C34.0625 10.5445 34.0625 10.9325 34.3008 11.1707L39.1932 16.0632L34.3038 20.9524C34.0655 21.1907 34.0655 21.5787 34.3038 21.817C34.4229 21.9362 34.5788 21.9972 34.7346 21.9972C34.8904 21.9972 35.0461 21.9392 35.1684 21.817L40.0577 16.9277L44.9469 21.817Z" fill="#003F3C"/>
<path fill-rule="evenodd" clip-rule="evenodd" d="M40.0562 27.6859C33.65 27.6859 28.4355 22.4742 28.4355 16.0652C28.4355 9.65601 33.647 4.44446 40.0562 4.44446C46.4652 4.44446 51.6768 9.65601 51.6768 16.0652C51.6768 22.4742 46.4622 27.6859 40.0562 27.6859ZM40.0562 5.6664C34.3221 5.6664 29.6574 10.3312 29.6574 16.0652C29.6574 21.7991 34.3221 26.4639 40.0562 26.4639C45.7901 26.4639 50.4549 21.7991 50.4549 16.0652C50.4549 10.3312 45.7901 5.6664 40.0562 5.6664Z" fill="#003F3C"/>
<path fill-rule="evenodd" clip-rule="evenodd" d="M14.435 31.2328C14.435 32.1967 14.7027 33.1284 15.2081 34.0149L6.47097 40.4248C6.26019 40.5776 6.1716 40.8495 6.25103 41.1C6.33046 41.3504 6.55956 41.5216 6.82228 41.5277C7.03612 41.5307 28.6065 42.1325 39.5735 56.1941C39.6895 56.3438 39.8668 56.4293 40.0562 56.4293C40.2455 56.4293 40.4228 56.3438 40.5389 56.1941C51.5028 42.1325 73.0731 41.5307 73.2901 41.5277C73.5527 41.5216 73.7819 41.3504 73.8613 41.1C73.9407 40.8495 73.8521 40.5776 73.6413 40.4218L64.9061 34.0133C65.4108 33.1272 65.6778 32.196 65.6773 31.2328C65.6773 27.1607 60.8933 23.5437 52.8836 21.555C52.5566 21.4755 52.2268 21.6741 52.1443 22.0009C52.0618 22.3279 52.2634 22.6577 52.5902 22.7402C59.9097 24.5579 64.4554 27.8113 64.4554 31.2297C64.4554 36.6093 53.2806 41.155 40.0562 41.155C26.8317 41.155 15.657 36.6093 15.657 31.2297C15.657 27.8113 20.2026 24.5579 27.522 22.7402C27.8489 22.6608 28.0505 22.3279 27.9681 22.0009C27.8886 21.6741 27.5557 21.4725 27.2288 21.555C19.2189 23.5467 14.435 27.1637 14.435 31.2328ZM8.56355 40.4034L15.8995 35.0224C19.3909 39.3536 28.7616 42.38 40.0562 42.38C51.3501 42.38 60.7224 39.3538 64.2135 35.023L71.5487 40.4034C69.389 40.5776 65.3993 41.0542 60.7345 42.3525C54.524 44.0784 45.9765 47.6404 40.0562 54.8408C34.1358 47.6404 25.5883 44.0784 19.3778 42.3525C14.713 41.0572 10.7233 40.5776 8.56355 40.4034Z" fill="#003F3C"/>
<path fill-rule="evenodd" clip-rule="evenodd" d="M15.046 51.7084C14.6456 50.9131 14.435 50.0835 14.435 49.2285C14.435 48.2631 14.7069 47.307 15.2445 46.3875C15.44 46.0545 15.6875 45.7184 16.0174 45.3366L16.5673 44.7012C16.7872 44.4446 17.1752 44.4201 17.4288 44.6401C17.6823 44.86 17.7098 45.248 17.4899 45.5015L16.94 46.137C16.6589 46.4608 16.4542 46.7388 16.2985 47.0046C15.8708 47.7347 15.6539 48.4831 15.6539 49.2285C15.6539 54.6081 26.8286 59.1537 40.0531 59.1537C51.1132 59.1537 60.7395 55.9743 63.5942 51.7867C63.6157 51.7446 63.6418 51.7055 63.6717 51.6702C64.1805 50.886 64.4523 50.0674 64.4523 49.2285C64.4523 48.6756 64.3332 48.1166 64.098 47.5727C63.8719 47.0503 63.5114 46.5402 63.0287 46.0606L62.5399 45.5749C62.3017 45.3366 62.2986 44.9517 62.5369 44.7103C62.7752 44.469 63.1601 44.469 63.4014 44.7073L63.8902 45.193C64.4859 45.7826 64.9319 46.4211 65.2221 47.0901C65.5245 47.7896 65.6773 48.5076 65.6773 49.2285C65.6777 50.0846 65.4669 50.9154 65.0657 51.7117C66.8732 52.3861 68.5219 53.8207 69.4898 55.604C70.2229 56.9542 70.4307 58.2648 70.0702 59.2942C69.2332 61.6893 67.162 61.7932 65.3351 61.8817C64.9472 61.9 64.547 61.9214 64.1682 61.9612C63.5205 62.0284 62.9432 62.3095 62.543 62.7524C61.9443 63.4214 61.3944 64.3928 60.8659 65.3307L60.8638 65.3343C59.8778 67.0775 58.8577 68.8807 57.2397 69.3173C55.6023 69.7542 53.803 68.6941 52.0678 67.6707C50.6474 66.8337 49.178 65.9692 48.0721 66.1158C46.9597 66.2621 45.7683 67.4755 44.6131 68.6521L44.6048 68.6605C43.1996 70.0963 41.7424 71.5809 40.0562 71.5809C38.3721 71.5809 36.9165 70.1002 35.5069 68.6662L35.5013 68.6605C34.3436 67.4813 33.1461 66.2624 32.0341 66.1158C30.9269 65.9668 29.4685 66.8262 28.0538 67.6598L28.0261 67.6761C26.2907 68.6978 24.4979 69.7534 22.8634 69.3173C21.2454 68.8807 20.2253 67.0775 19.2393 65.3343L19.2373 65.3307L19.2109 65.2842C18.6877 64.3608 18.149 63.4103 17.5571 62.7494C17.1599 62.3094 16.5826 62.0284 15.9349 61.9612C15.5531 61.9214 15.1529 61.9 14.7649 61.8817C12.9381 61.7932 10.8669 61.6893 10.0299 59.2942C9.66944 58.2648 9.87717 56.9542 10.6103 55.604C11.5802 53.8196 13.234 52.383 15.046 51.7084ZM15.7087 52.7723C14.0946 53.2981 12.5467 54.6006 11.6826 56.1875C11.1236 57.217 10.9403 58.2006 11.1816 58.891C11.7192 60.4307 12.9167 60.5681 14.8229 60.6598C14.8722 60.6624 14.9216 60.665 14.9712 60.6676C15.3283 60.6861 15.6954 60.7051 16.0602 60.7454C17.0072 60.8462 17.8626 61.2678 18.4644 61.9306C19.1548 62.7035 19.7382 63.733 20.3004 64.7289C21.1618 66.2563 22.0538 67.8357 23.1781 68.1382C24.3149 68.4421 25.8753 67.524 27.3896 66.6331L27.4121 66.6199C29.0098 65.6758 30.6655 64.7014 32.1899 64.9061C33.7179 65.1043 35.0632 66.4749 36.3627 67.7987L36.3689 67.8051L36.3763 67.8126C37.6081 69.0658 38.8793 70.359 40.0501 70.359C41.2231 70.359 42.5 69.0606 43.7311 67.8051L43.7466 67.7894C45.0462 66.4685 46.3888 65.1038 47.9133 64.9061C49.4334 64.705 51.0812 65.6735 52.6777 66.612L52.691 66.6199C54.2124 67.518 55.7856 68.4436 56.9251 68.1382C58.0493 67.8357 58.9413 66.2563 59.8028 64.7289L59.8069 64.7215C60.3677 63.7279 60.947 62.7016 61.6357 61.9337C62.2375 61.2646 63.0929 60.8431 64.0399 60.7454C64.4463 60.7035 64.8526 60.6822 65.2505 60.6612L65.2771 60.6598C67.1864 60.5651 68.3808 60.4307 68.9185 58.891C69.1598 58.2006 68.9766 57.2139 68.4175 56.1875C67.5581 54.6038 66.0151 53.3036 64.4022 52.7757C61.0705 57.2359 51.5603 60.3757 40.0562 60.3757C28.5492 60.3757 19.039 57.2343 15.7087 52.7723Z" fill="#003F3C"/>
<path d="M11.9637 68.2973C11.9637 75.5557 25.6097 75.5557 40.0562 75.5557C54.5026 75.5557 68.1487 75.5557 68.1548 68.2973C68.1548 67.4268 67.9501 66.5592 67.5469 65.7221C67.2689 65.1448 66.8901 64.5949 66.3891 64.0389L65.9003 63.4982C65.6773 63.2477 65.2893 63.2263 65.0389 63.4524C64.7884 63.6815 64.7669 64.0664 64.993 64.3169L65.4818 64.8576C65.9034 65.325 66.2181 65.7802 66.4441 66.2507C66.7648 66.9197 66.9298 67.6101 66.9298 68.2943C66.9298 73.897 55.7917 74.3308 40.0592 74.3308C24.3267 74.3308 13.1886 73.897 13.1886 68.2943C13.1886 67.5154 13.3994 66.7302 13.821 65.9665C14.0196 65.603 14.2884 65.2395 14.6336 64.8576L15.1223 64.3169C15.3484 64.0664 15.3301 63.6784 15.0796 63.4524C14.8321 63.2263 14.4442 63.2446 14.2181 63.4951L13.7293 64.0358C13.3169 64.491 12.9962 64.9309 12.7487 65.38C12.2263 66.327 11.9637 67.3076 11.9637 68.2973Z" fill="#003F3C"/>
</svg>
