<svg width="80" height="80" viewBox="0 0 80 80" fill="none" xmlns="http://www.w3.org/2000/svg">
<path fill-rule="evenodd" clip-rule="evenodd" d="M13.5122 7.26449C13.5122 9.73108 15.5194 11.7382 17.986 11.7382C18.6098 11.7382 19.2042 11.6099 19.7442 11.3782L22.2274 15.4358L10.5341 35.6908C10.4167 35.8928 10.4167 36.1405 10.5341 36.3424L22.2315 56.6048L15.8871 67.7538C15.3565 67.5555 14.7823 67.4471 14.1835 67.4471C11.492 67.4471 9.30234 69.6368 9.30234 72.3282C9.30234 75.0196 11.492 77.2093 14.1835 77.2093C16.8749 77.2093 19.0646 75.0196 19.0646 72.3282C19.0646 70.7014 18.2645 69.2579 17.0372 68.3704L23.3608 57.2582H39.5761C39.9345 57.2582 40.2311 56.9648 40.2311 56.6064C40.2311 56.248 39.9378 55.9548 39.5794 55.9548H23.3623L11.8504 36.0167L23.3623 16.0784H41.2929C41.6177 18.8076 43.9457 20.9302 46.7609 20.9302C47.531 20.9302 48.2645 20.7715 48.9306 20.4848L53.3527 28.1444C53.4732 28.3528 53.6915 28.4702 53.9164 28.4702C54.0272 28.4702 54.1412 28.4441 54.2422 28.3822C54.5517 28.203 54.6593 27.8055 54.4801 27.4927L50.0574 19.8322C51.3984 18.827 52.2676 17.225 52.2676 15.4235C52.2676 12.3867 49.7978 9.91685 46.7609 9.91685C43.9435 9.91685 41.614 12.0428 41.2922 14.7751H23.3509L20.8542 10.6952C21.835 9.87387 22.4597 8.64066 22.4597 7.26449C22.4597 4.79787 20.4526 2.79071 17.986 2.79071C15.5194 2.79071 13.5122 4.79787 13.5122 7.26449ZM19.6684 9.94662C20.5611 9.38476 21.1564 8.39043 21.1564 7.26122C21.1564 5.51473 19.7357 4.09081 17.986 4.09081C16.2362 4.09081 14.8155 5.51473 14.8155 7.26122C14.8155 9.00773 16.2395 10.4316 17.986 10.4316C18.5812 10.4316 19.1391 10.2662 19.6157 9.97899C19.6241 9.97331 19.6326 9.96783 19.6413 9.96243C19.6502 9.95694 19.6593 9.95164 19.6684 9.94662ZM48.9148 19.0315C48.896 19.04 48.8775 19.0495 48.8594 19.0599C48.8559 19.0619 48.8526 19.0638 48.8493 19.0659L48.8446 19.0688C48.8308 19.0771 48.8176 19.086 48.8048 19.0953C48.1993 19.4338 47.5022 19.6269 46.7609 19.6269C44.4442 19.6269 42.5576 17.7403 42.5576 15.4235C42.5576 13.1068 44.4409 11.2202 46.7609 11.2202C49.0777 11.2202 50.9643 13.1068 50.9643 15.4235C50.9643 16.9537 50.1412 18.2963 48.9148 19.0315ZM15.8254 69.15C15.3332 68.8947 14.7748 68.7505 14.1835 68.7505C12.2121 68.7505 10.6057 70.3536 10.6057 72.3282C10.6057 74.3028 12.2088 75.906 14.1835 75.906C16.1581 75.906 17.7611 74.3028 17.7611 72.3282C17.7611 70.9696 17.0007 69.7869 15.8841 69.1811C15.8688 69.174 15.8537 69.1662 15.8387 69.1578C15.8342 69.1553 15.8298 69.1527 15.8254 69.15Z" fill="#003F3C"/>
<path d="M57.2666 16.0752C56.9082 16.0752 56.6148 15.7819 56.6148 15.4235C56.6148 9.98855 52.1932 5.56686 46.7582 5.56686C46.3998 5.56686 46.1065 5.27359 46.1065 4.91517C46.1065 4.55675 46.3998 4.26349 46.7582 4.26349C52.91 4.26349 57.9182 9.26836 57.9182 15.4235C57.9182 15.7819 57.6282 16.0752 57.2666 16.0752Z" fill="#003F3C"/>
<path fill-rule="evenodd" clip-rule="evenodd" d="M57.4062 70.3667H57.2628C53.8382 70.4058 50.4234 69.06 47.9307 66.6749C45.4381 64.2898 43.9457 60.9466 43.8317 57.4993C43.6655 52.4292 46.4156 47.786 48.8333 44.306C49.4956 43.3515 50.1874 42.397 50.8609 41.4681L50.9778 41.3067L50.9784 41.306C52.9628 38.568 55.0139 35.738 56.6893 32.478C56.8001 32.2596 57.025 32.1228 57.2693 32.1228C57.5137 32.1228 57.7386 32.2596 57.8493 32.478C59.5307 35.7494 61.59 38.5907 63.5809 41.3343C64.2847 42.3021 65.008 43.3024 65.7053 44.3027C68.123 47.7827 70.8764 52.426 70.7069 57.496C70.593 60.9434 69.0973 64.2865 66.6079 66.6716C64.1478 69.0275 60.8014 70.3667 57.4062 70.3667ZM57.2596 69.0634C60.3811 69.0927 63.4571 67.8837 65.7053 65.7332C67.9536 63.5827 69.2993 60.5654 69.4036 57.4569C69.5567 52.768 66.937 48.3627 64.6333 45.0489C64.0326 44.1835 63.4046 43.3155 62.7905 42.4669L62.5252 42.1C60.7265 39.6204 58.8724 37.0625 57.2693 34.1594C55.6772 37.0427 53.8375 39.5822 52.0505 42.0491L52.0135 42.1C51.9254 42.2219 51.837 42.3442 51.7481 42.4669C51.134 43.3155 50.506 44.1835 49.9053 45.0489C47.6016 48.3627 44.9819 52.768 45.135 57.4569C45.236 60.5654 46.585 63.5827 48.8333 65.7332C51.0784 67.8837 54.1445 69.0927 57.2596 69.0634Z" fill="#003F3C"/>
<path d="M57.403 77.2093H57.1325C51.9907 77.2093 46.9141 75.1728 43.1996 71.6211C42.9389 71.3735 42.9291 70.9597 43.1801 70.6991C43.4277 70.4383 43.8415 70.4286 44.1021 70.6795C47.5756 74.0031 52.3231 75.906 57.1325 75.906H57.403C62.2124 75.906 66.9599 73.9998 70.4333 70.6795C70.6939 70.4318 71.1046 70.4383 71.3554 70.6991C71.6031 70.9597 71.5966 71.3702 71.3359 71.6211C67.6213 75.1728 62.5447 77.2093 57.403 77.2093Z" fill="#003F3C"/>
<path d="M26.2422 51.6049H43.4954C43.8571 51.6049 44.1471 51.3116 44.1471 50.9531C44.1471 50.5947 43.8538 50.3015 43.4954 50.3015H26.2422C25.8838 50.3015 25.5905 50.5947 25.5905 50.9531C25.5905 51.3116 25.8838 51.6049 26.2422 51.6049Z" fill="#003F3C"/>
</svg>
