<svg width="120" height="120" viewBox="0 0 120 120" fill="none" xmlns="http://www.w3.org/2000/svg">
<path d="M88.0395 63.2508H80.0227V55.234C80.0227 54.5707 79.4859 54.034 78.8227 54.034H66.7887C66.1254 54.034 65.5887 54.5707 65.5887 55.234V63.2508H57.5719C56.9086 63.2508 56.3719 63.7875 56.3719 64.4508V76.4848C56.3719 77.148 56.9086 77.6848 57.5719 77.6848H65.5887V85.7016C65.5887 86.3648 66.1254 86.9016 66.7887 86.9016H78.8227C79.4859 86.9016 80.0227 86.3648 80.0227 85.7016V77.6848H88.0395C88.7027 77.6848 89.2395 77.148 89.2395 76.4848V64.4508C89.2395 63.7875 88.7027 63.2508 88.0395 63.2508ZM86.8395 75.2848H78.8227C78.1594 75.2848 77.6227 75.8215 77.6227 76.4848V84.5016H67.9887V76.4848C67.9887 75.8215 67.452 75.2848 66.7887 75.2848H58.7719V65.6508H66.7887C67.452 65.6508 67.9887 65.1141 67.9887 64.4508V56.434H77.6227V64.4508C77.6227 65.1141 78.1594 65.6508 78.8227 65.6508H86.8395V75.2848Z" fill="#003F3C"/>
<path d="M102.334 45.3422H82.3887V17.666C82.3887 14.5418 79.8469 12 76.7227 12H17.666C14.5418 12 12 14.5418 12 17.666V56.8066C12 59.7398 14.2406 62.1598 17.1 62.4445L27.5121 74.25C27.7441 74.5137 28.0746 74.6566 28.4121 74.6566C28.5551 74.6566 28.698 74.6309 28.8363 74.5793C29.3027 74.4023 29.6121 73.9559 29.6121 73.4566V62.4727H37.6113V90.1488C37.6113 93.273 40.1531 95.8148 43.2773 95.8148H90.3879V106.8C90.3879 107.299 90.6973 107.746 91.1637 107.923C91.302 107.974 91.4449 108 91.5879 108C91.9254 108 92.2559 107.857 92.4879 107.593L102.9 95.7867C105.759 95.502 108 93.082 108 90.1488V51.0082C108 47.884 105.458 45.3422 102.334 45.3422ZM28.4121 60.0727C27.7488 60.0727 27.2121 60.6094 27.2121 61.2727V70.282L18.566 60.4793C18.3387 60.2203 18.0105 60.0727 17.666 60.0727C15.8648 60.0727 14.4 58.6078 14.4 56.8066V17.666C14.4 15.8648 15.8648 14.4 17.666 14.4H76.7227C78.5238 14.4 79.9887 15.8648 79.9887 17.666V45.3422H43.2773C40.1531 45.3422 37.6113 47.884 37.6113 51.0082V60.0727H28.4121ZM105.6 90.1488C105.6 91.95 104.135 93.4148 102.334 93.4148C101.989 93.4148 101.661 93.5625 101.434 93.8215L92.7879 103.625V94.6148C92.7879 93.9516 92.2512 93.4148 91.5879 93.4148H43.2773C41.4762 93.4148 40.0113 91.95 40.0113 90.1488V51.0082C40.0113 49.207 41.4762 47.7422 43.2773 47.7422H102.334C104.135 47.7422 105.6 49.207 105.6 51.0082V90.1488Z" fill="#003F3C"/>
</svg>
