<svg width="120" height="120" viewBox="0 0 120 120" fill="none" xmlns="http://www.w3.org/2000/svg">
<path d="M72.8285 24.1617C73.4918 24.1617 74.0285 23.625 74.0285 22.9617V19.1273C74.0285 18.4641 73.4918 17.9273 72.8285 17.9273C72.1652 17.9273 71.6285 18.4641 71.6285 19.1273V22.9617C71.6285 23.625 72.1652 24.1617 72.8285 24.1617Z" fill="#003F3C"/>
<path d="M66.4148 24.1617C67.0781 24.1617 67.6148 23.625 67.6148 22.9617V19.1273C67.6148 18.4641 67.0781 17.9273 66.4148 17.9273C65.7516 17.9273 65.2148 18.4641 65.2148 19.1273V22.9617C65.2148 23.625 65.7516 24.1617 66.4148 24.1617Z" fill="#003F3C"/>
<path d="M60 24.1617C60.6633 24.1617 61.2 23.625 61.2 22.9617V19.1273C61.2 18.4641 60.6633 17.9273 60 17.9273C59.3367 17.9273 58.8 18.4641 58.8 19.1273V22.9617C58.8 23.625 59.3367 24.1617 60 24.1617Z" fill="#003F3C"/>
<path d="M53.5852 24.1617C54.2484 24.1617 54.7852 23.625 54.7852 22.9617V19.1273C54.7852 18.4641 54.2484 17.9273 53.5852 17.9273C52.9219 17.9273 52.3852 18.4641 52.3852 19.1273V22.9617C52.3852 23.625 52.9219 24.1617 53.5852 24.1617Z" fill="#003F3C"/>
<path d="M48.3715 22.9617V19.1273C48.3715 18.4641 47.8348 17.9273 47.1715 17.9273C46.5082 17.9273 45.9715 18.4641 45.9715 19.1273V22.9617C45.9715 23.625 46.5082 24.1617 47.1715 24.1617C47.8348 24.1617 48.3715 23.625 48.3715 22.9617Z" fill="#003F3C"/>
<path d="M37.4941 42.2203V101.314C37.4941 105.001 40.493 108 44.1797 108H75.8203C79.507 108 82.5059 105.001 82.5059 101.314V42.2203C82.5059 37.7332 79.159 34.0125 74.8301 33.4254V30.1453H75.6715C78.8027 30.1453 81.3504 27.5977 81.3504 24.4664V17.6789C81.3504 14.5477 78.8027 12 75.6715 12H44.3285C41.1973 12 38.6496 14.5477 38.6496 17.6789V24.4664C38.6496 27.5977 41.1973 30.1453 44.3285 30.1453H45.1699V33.4254C40.841 34.0125 37.4941 37.7332 37.4941 42.2203ZM80.1059 92.3895H39.8941V49.3559H80.1059V92.3895ZM75.8203 105.6H44.1797C41.8172 105.6 39.8941 103.677 39.8941 101.314V94.7895H80.1059V101.314C80.1059 103.677 78.1828 105.6 75.8203 105.6ZM41.0496 24.4664V17.6789C41.0496 15.8707 42.5203 14.4 44.3285 14.4H75.6715C77.4797 14.4 78.9504 15.8707 78.9504 17.6789V24.4664C78.9504 26.2746 77.4797 27.7453 75.6715 27.7453H44.3285C42.5203 27.7453 41.0496 26.2746 41.0496 24.4664ZM72.4301 30.1453V34.5445C72.4301 35.2078 72.9668 35.7445 73.6301 35.7445C77.2008 35.7445 80.1059 38.6496 80.1059 42.2203V46.9559H39.8941V42.2203C39.8941 38.6496 42.7992 35.7445 46.3699 35.7445C47.0332 35.7445 47.5699 35.2078 47.5699 34.5445V30.1453H72.4301Z" fill="#003F3C"/>
<path d="M51.0375 62.8031H68.9625C69.6258 62.8031 70.1625 62.2664 70.1625 61.6031C70.1625 60.9398 69.6258 60.4031 68.9625 60.4031H51.0375C50.3742 60.4031 49.8375 60.9398 49.8375 61.6031C49.8375 62.2664 50.3742 62.8031 51.0375 62.8031Z" fill="#003F3C"/>
<path d="M51.0375 72.0727H68.9625C69.6258 72.0727 70.1625 71.5359 70.1625 70.8727C70.1625 70.2094 69.6258 69.6727 68.9625 69.6727H51.0375C50.3742 69.6727 49.8375 70.2094 49.8375 70.8727C49.8375 71.5359 50.3742 72.0727 51.0375 72.0727Z" fill="#003F3C"/>
<path d="M68.9625 78.9422H51.0375C50.3742 78.9422 49.8375 79.4789 49.8375 80.1422C49.8375 80.8055 50.3742 81.3422 51.0375 81.3422H68.9625C69.6258 81.3422 70.1625 80.8055 70.1625 80.1422C70.1625 79.4789 69.6258 78.9422 68.9625 78.9422Z" fill="#003F3C"/>
</svg>
