<svg width="120" height="120" viewBox="0 0 120 120" fill="none" xmlns="http://www.w3.org/2000/svg">
<path d="M55.92 46.8H60.84V51.6C60.84 52.32 61.32 52.8 62.04 52.8C62.76 52.8 63.24 52.32 63.24 51.6V46.8H68.16C68.88 46.8 69.36 46.32 69.36 45.6C69.36 44.88 68.88 44.4 68.16 44.4H63.24V39.48C63.24 38.76 62.76 38.28 62.04 38.28C61.32 38.28 60.84 38.76 60.84 39.48V44.4H55.92C55.2 44.4 54.72 44.88 54.72 45.6C54.72 46.32 55.32 46.8 55.92 46.8Z" fill="#003F3C"/>
<path d="M45.96 63.96C45.96 64.68 46.44 65.16 47.16 65.16H76.44C77.16 65.16 77.64 64.68 77.64 63.96C77.64 63.24 77.16 62.76 76.44 62.76H47.16C46.56 62.76 45.96 63.24 45.96 63.96Z" fill="#003F3C"/>
<path d="M76.56 69.36H47.16C46.44 69.36 45.96 69.84 45.96 70.56C45.96 71.28 46.44 71.76 47.16 71.76H76.44C77.16 71.76 77.64 71.28 77.64 70.56C77.64 69.84 77.16 69.36 76.56 69.36Z" fill="#003F3C"/>
<path d="M76.56 75.96H47.16C46.44 75.96 45.96 76.44 45.96 77.16C45.96 77.88 46.44 78.36 47.16 78.36H76.44C77.16 78.36 77.64 77.88 77.64 77.16C77.64 76.44 77.16 75.96 76.56 75.96Z" fill="#003F3C"/>
<path d="M76.56 82.56H47.16C46.44 82.56 45.96 83.04 45.96 83.76C45.96 84.48 46.44 84.96 47.16 84.96H76.44C77.16 84.96 77.64 84.48 77.64 83.76C77.64 83.04 77.16 82.56 76.56 82.56Z" fill="#003F3C"/>
<path d="M29.04 106.44H94.2C94.92 106.44 95.4 105.96 95.4 105.24V24.96C95.4 24.24 94.92 23.76 94.2 23.76H76.32V21.48C76.32 20.76 75.84 20.28 75.12 20.28H68.4V19.8C68.4 16.08 65.4 12.96 61.56 12.96C57.84 12.96 54.72 15.96 54.72 19.8V20.28H48C47.28 20.28 46.8 20.76 46.8 21.48V23.76H29.04C28.32 23.76 27.84 24.24 27.84 24.96V105.24C27.84 105.84 28.44 106.44 29.04 106.44ZM49.44 22.68H56.16C56.88 22.68 57.36 22.2 57.36 21.48V19.8C57.36 17.4 59.28 15.36 61.8 15.36C64.32 15.36 66.24 17.28 66.24 19.8V21.48C66.24 22.2 66.72 22.68 67.44 22.68H74.16V28.32H49.44V22.68ZM48.24 30.72H75.12C75.84 30.72 76.32 30.24 76.32 29.52V26.16H84V93.84H39.36V26.16H47.04V29.52C47.04 30.24 47.52 30.72 48.24 30.72ZM30.24 26.16H36.84V95.04C36.84 95.76 37.32 96.24 38.04 96.24H85.2C85.92 96.24 86.4 95.76 86.4 95.04V26.16H93V104.04H30.24V26.16Z" fill="#003F3C"/>
<path d="M61.68 20.88C62.4753 20.88 63.12 20.2353 63.12 19.44C63.12 18.6447 62.4753 18 61.68 18C60.8847 18 60.24 18.6447 60.24 19.44C60.24 20.2353 60.8847 20.88 61.68 20.88Z" fill="#003F3C"/>
</svg>
